<?xml version="1.0" standalone="no"?>
<!DOCTYPE svg PUBLIC "-//W3C//DTD SVG 1.1//EN" "http://www.w3.org/Graphics/SVG/1.1/DTD/svg11.dtd" >
<svg xmlns="http://www.w3.org/2000/svg">
<metadata></metadata>
<defs>
<font id="kohinoor_devanagariregular" horiz-adv-x="1144" >
<font-face units-per-em="2048" ascent="1638" descent="-410" />
<missing-glyph horiz-adv-x="589" />
<glyph unicode="&#xfb01;" horiz-adv-x="1220" d="M57 989v125h187v125q0 332 422 332q106 0 205.5 -19.5t146.5 -44.5l-43 -127q-133 55 -326 56q-133 0 -189.5 -47.5t-56.5 -149.5v-125h648v-1114h-160v989h-490v-989h-159v989h-185z" />
<glyph unicode="&#xfb02;" horiz-adv-x="1300" d="M57 989v125h187v125q0 332 422 332q252 0 385 -84v-1223q0 -74 26.5 -107.5t87.5 -33.5q49 0 95 22v-135q-55 -25 -140 -24q-113 0 -171 62.5t-58 172.5v1184q-96 31 -242 31q-133 0 -189.5 -47.5t-56.5 -149.5v-125h259v-125h-261v-989h-159v989h-185z" />
<glyph horiz-adv-x="0" />
<glyph unicode="&#xd;" horiz-adv-x="681" />
<glyph unicode=" "  horiz-adv-x="589" />
<glyph unicode="&#x09;" horiz-adv-x="589" />
<glyph unicode="&#xa0;" horiz-adv-x="589" />
<glyph unicode="!" horiz-adv-x="595" d="M182 121q0 53 35 90t86 37q53 0 89 -37t36 -90q0 -49 -36 -85t-89 -36q-51 0 -86 36t-35 85zM197 1450h206l-38 -946h-127z" />
<glyph unicode="&#x22;" horiz-adv-x="663" d="M88 1468h182l-32 -452h-117zM393 1468h182l-32 -452h-117z" />
<glyph unicode="#" horiz-adv-x="1370" d="M80 412l6 131h242l61 348h-233l6 131h248l67 393h144l-68 -393h399l68 393h145l-69 -393h196l-8 -131h-209l-59 -348h198l-6 -131h-213l-69 -412h-146l70 412h-399l-70 -412h-143l69 412h-227zM471 543h401l60 348h-400z" />
<glyph unicode="$" horiz-adv-x="1081" d="M61 150l99 133q152 -133 362 -133q152 0 223.5 61t71.5 160q0 90 -62.5 145t-193.5 115l-125 55q-141 63 -219 147.5t-78 219.5q0 147 100.5 241.5t254.5 116.5l-5 283h148l-4 -279q195 -14 319 -112l-106 -127q-43 43 -121 69.5t-156 26.5q-125 0 -195.5 -56.5 t-70.5 -154.5q0 -88 59.5 -143.5t182.5 -112.5l117 -53q80 -37 127 -66t97 -73t73.5 -100t23.5 -128q0 -139 -97.5 -245.5t-281.5 -129.5l4 -293h-149l4 289q-238 12 -402 144z" />
<glyph unicode="%" horiz-adv-x="1693" d="M96 1044q0 188 87 290t229 102q139 0 221 -97.5t82 -287.5q0 -195 -86 -295.5t-226 -100.5q-143 0 -225 96.5t-82 292.5zM236 1047q0 -277 174 -277q84 0 126 64.5t42 209.5q0 274 -177 275q-166 0 -165 -272zM305 123l1016 1266l98 -80l-1016 -1266zM977 371 q0 188 87 288.5t228 100.5q139 0 221 -96.5t82 -286.5q0 -195 -86 -296t-227 -101t-223 97t-82 294zM1116 373q0 -277 174 -277q84 0 126 64.5t42 208.5q0 276 -176 276q-166 0 -166 -272z" />
<glyph unicode="&#x26;" horiz-adv-x="1390" d="M82 367q0 283 344 395q-139 154 -139 317q0 143 101 240.5t263 97.5q158 0 253 -96t95 -238q0 -285 -335 -381q137 -150 366 -354q104 162 105 391h145q-8 -285 -145 -481q80 -72 284 -235v-23h-200q-102 80 -181 147q-176 -176 -475 -176q-236 0 -358.5 120t-122.5 276z M233 377q0 -111 88 -193t252 -82q223 0 363 136q-285 262 -420 415q-283 -72 -283 -276zM436 1079q0 -145 135 -274q162 43 221.5 110.5t59.5 165.5q0 86 -55.5 143.5t-147.5 57.5q-96 0 -154.5 -54.5t-58.5 -148.5z" />
<glyph unicode="'" horiz-adv-x="358" d="M88 1468h182l-32 -452h-117z" />
<glyph unicode="(" horiz-adv-x="651" d="M166 606q0 205 50 396.5t124 321.5t135.5 211t106.5 118h170v-15q-188 -176 -313.5 -443t-125.5 -589q0 -319 125 -586.5t314 -443.5v-14h-168q-45 37 -107.5 118.5t-136.5 212t-124 320.5t-50 393z" />
<glyph unicode=")" horiz-adv-x="651" d="M-100 -424q188 176 313 443.5t125 586.5q0 322 -125 589t-313 443v15h170q45 -37 106.5 -118t135 -211t123.5 -321.5t50 -396.5q0 -203 -50 -393t-123.5 -321.5t-135 -212t-106.5 -117.5h-170v14z" />
<glyph unicode="*" horiz-adv-x="821" d="M45 1114l43 131l113 -35l151 -63l-12 166v117h139v-117l-14 -168l158 65l108 37l45 -131l-112 -39l-164 -37l112 -129l68 -94l-113 -80l-71 94l-86 142l-86 -144l-70 -94l-111 82l68 96l108 125l-163 39z" />
<glyph unicode="+" horiz-adv-x="1077" d="M61 625v141h404v408h145v-408h406v-141h-406v-406h-145v406h-404z" />
<glyph unicode="," horiz-adv-x="491" d="M102 -215q72 29 114 77t42 99q0 37 -22.5 66.5t-46 45t-68.5 40.5v10q0 55 36 92t93 37q68 0 110.5 -50t42.5 -139q0 -129 -81 -224t-179 -130z" />
<glyph unicode="-" horiz-adv-x="690" d="M49 539v143h592v-143h-592z" />
<glyph unicode="." horiz-adv-x="452" d="M100 123q0 55 36 92t89.5 37t90 -37t36.5 -92q0 -51 -36.5 -87t-90.5 -36q-51 0 -88 36t-37 87z" />
<glyph unicode="/" horiz-adv-x="692" d="M-4 -276l555 1771h145l-557 -1771h-143z" />
<glyph unicode="0" horiz-adv-x="1110" d="M113 659q0 694 448 695q227 0 331.5 -165t104.5 -515q1 -692 -450 -692q-227 0 -330.5 163.5t-103.5 513.5zM276 674q0 -279 67 -414t214 -135q152 0 214.5 128t62.5 406.5t-68 414.5t-217.5 136t-211 -127.5t-61.5 -408.5z" />
<glyph unicode="1" horiz-adv-x="833" d="M29 1077l391 258h170v-1335h-158v809l6 360h-8l-149 -112l-158 -109z" />
<glyph unicode="2" horiz-adv-x="966" d="M63 143q39 35 246 267.5t226 259.5q139 160 139 321q0 98 -58.5 156.5t-156.5 58.5q-168 0 -209 -192l-162 37q29 129 127 212t256 83q170 0 269.5 -92.5t99.5 -245.5q0 -211 -191 -437q-147 -172 -192 -217q-2 -2 -51.5 -53t-95.5 -99.5t-54 -54.5v-8l209 4h399v-143 h-774z" />
<glyph unicode="3" horiz-adv-x="987" d="M61 188l140 88q86 -152 258 -151q256 0 256 248q0 125 -73 176t-228 51h-86v137h86q135 0 196.5 62.5t61.5 189.5q0 98 -55.5 159.5t-161.5 61.5q-180 0 -215 -176l-158 29q25 125 125 207t252 82q174 0 275.5 -91.5t101.5 -256.5q0 -131 -57.5 -213t-147.5 -105v-6 q104 -14 170.5 -85t66.5 -214q0 -190 -111.5 -293.5t-316.5 -103.5q-135 0 -234.5 59t-144.5 145z" />
<glyph unicode="4" horiz-adv-x="1015" d="M49 459l537 876h202v-876h191v-137h-191v-322h-153v322h-549zM217 459h418v420l10 290h-8l-139 -245z" />
<glyph unicode="5" horiz-adv-x="1028" d="M109 213l157 76q72 -164 252 -164q123 0 185.5 75.5t62.5 213.5q0 268 -248 268q-115 0 -188 -78l-166 58l57 673h647v-141h-508l-38 -444h10q88 66 217 65q184 0 282.5 -97t98.5 -288q0 -207 -115.5 -326.5t-312.5 -119.5q-272 0 -393 229z" />
<glyph unicode="6" horiz-adv-x="1036" d="M119 479q0 283 136 510.5t325 345.5h223v-18q-170 -100 -282.5 -219t-180.5 -283l6 -6q78 51 219 51q174 0 275.5 -106.5t101.5 -309.5q0 -213 -115.5 -337.5t-304.5 -124.5q-403 0 -403 497zM276 483q0 -190 71 -277t188 -87q246 0 245 301q0 299 -254 299 q-133 0 -233 -62q-16 -68 -17 -174z" />
<glyph unicode="7" horiz-adv-x="874" d="M10 1184v151h772l33 -155l-242 -490q-170 -346 -170 -635v-55h-157v55q0 307 180 688l106 230l115 209v8q-94 -6 -235 -6h-402z" />
<glyph unicode="8" horiz-adv-x="1101" d="M117 354q0 135 66.5 215t168.5 111v8q-84 18 -139 94t-55 207q0 176 110.5 270.5t288.5 94.5t282.5 -89t104.5 -259q0 -244 -199 -312v-8q102 -18 170 -95t68 -220q0 -188 -115.5 -288.5t-320.5 -100.5q-430 0 -430 372zM279 365q0 -119 69.5 -184.5t202.5 -65.5 q272 0 272.5 247.5t-280.5 247.5q-264 0 -264 -245zM311 997q0 -121 62.5 -187.5t175.5 -66.5t176 64.5t63 185.5q0 102 -62 163t-175 61q-115 0 -177.5 -57.5t-62.5 -162.5z" />
<glyph unicode="9" horiz-adv-x="1017" d="M82 899q0 209 117.5 332t304.5 123q401 0 401 -494q0 -281 -135 -512t-317 -348h-228v18q348 206 465 519l-6 4q-90 -49 -221 -49q-174 0 -277.5 103t-103.5 304zM244 924q0 -293 258 -293q125 0 229 67q12 72 12 156q0 358 -254 358q-246 0 -245 -288z" />
<glyph unicode=":" horiz-adv-x="452" d="M100 137q0 55 36 92t89.5 37t90 -36.5t36.5 -92.5q0 -51 -36.5 -87t-90.5 -36q-51 0 -88 36t-37 87zM100 956q0 53 37 91t88 38q53 0 90 -37.5t37 -91t-36.5 -89.5t-90 -36t-89.5 37t-36 88z" />
<glyph unicode=";" horiz-adv-x="491" d="M94 -217q74 29 115 76t41 100q0 29 -9.5 50.5t-35 42t-40.5 29.5t-52 30v10q0 55 36.5 92t92.5 37q68 0 110.5 -50t42.5 -139q0 -129 -81 -224t-179 -130zM121 956q0 55 36 92t87 37q55 0 92 -36.5t37 -92.5q0 -51 -37 -86.5t-92 -35.5q-51 0 -87 35.5t-36 86.5z" />
<glyph unicode="&#x3c;" horiz-adv-x="1077" d="M61 635v147l955 439v-166l-494 -221l-295 -121v-8l295 -121l494 -222v-165z" />
<glyph unicode="=" horiz-adv-x="1077" d="M61 395v142h955v-142h-955zM61 854v141h955v-141h-955z" />
<glyph unicode="&#x3e;" horiz-adv-x="1077" d="M61 197v165l492 220l295 120v9l-293 123l-494 221v166l955 -437v-149z" />
<glyph unicode="?" horiz-adv-x="1003" d="M162 1350q131 121 362 120q172 0 271.5 -83.5t99.5 -237.5q0 -129 -53.5 -217t-163.5 -191l-242 -221q-74 27 -74 94q0 41 38 87.5t91.5 90.5t107.5 92t92 111.5t38 130.5q0 94 -55.5 146.5t-155.5 52.5q-147 0 -250 -102zM397 121q0 53 36 90t87 37q53 0 89 -36t36 -91 q0 -51 -36 -86t-89 -35q-51 0 -87 35t-36 86z" />
<glyph unicode="@" horiz-adv-x="1875" d="M129 426q0 379 263 648t642 269q322 0 517.5 -175t195.5 -463q0 -250 -124 -418t-323 -168q-152 0 -190 106h-8q-90 -111 -244 -110q-145 0 -218 88t-73 227q0 242 140.5 383t339.5 141q158 0 253 -59l-59 -387q-16 -115 -16 -162q0 -96 94 -96q127 0 202.5 127t75.5 311 q0 250 -155.5 385t-429.5 135q-301 0 -517 -229t-216 -539q0 -281 150.5 -428t438.5 -147q213 0 357 98l61 -119q-174 -115 -442 -114q-340 0 -527.5 186t-187.5 510zM715 459q0 -215 170 -215q68 0 124 35.5t78 89.5q6 86 11 106l47 332q-43 16 -111 16q-139 0 -229 -103.5 t-90 -260.5z" />
<glyph unicode="A" horiz-adv-x="1216" d="M16 0l465 1436h254l465 -1436h-172l-133 418h-578l-133 -418h-168zM365 563h483l-154 484q-10 33 -84 276h-8q-21 -71 -82 -272z" />
<glyph unicode="B" horiz-adv-x="1236" d="M193 0v1436h438q182 0 294.5 -88t112.5 -279q0 -129 -53 -215t-141 -109v-8q119 -14 192.5 -99t73.5 -232q0 -186 -118 -296t-363 -110h-436zM352 143h289q158 0 230.5 60.5t72.5 191.5q0 256 -311 256h-281v-508zM352 795h256q137 0 203 61.5t66 196.5q0 239 -275 239 h-2h-248v-497z" />
<glyph unicode="C" horiz-adv-x="1165" d="M125 707q0 356 151.5 552.5t436.5 196.5q244 0 381 -119l-103 -125q-115 96 -295 97q-193 0 -298 -145.5t-105 -442.5q0 -291 106.5 -441.5t313.5 -150.5q188 0 280 88l90 -117q-124 -120 -389 -120h-4q-287 0 -426 191.5t-139 535.5z" />
<glyph unicode="D" horiz-adv-x="1320" d="M193 0v1436h376q324 0 475.5 -171t151.5 -534q0 -731 -629 -731h-374zM356 145h209q240 0 351.5 132.5t111.5 435.5q0 311 -117.5 444t-355.5 133h-199v-1145z" />
<glyph unicode="E" horiz-adv-x="1079" d="M193 0v1436h761v-146h-598v-489h527v-146h-527v-510h627v-145h-790z" />
<glyph unicode="F" horiz-adv-x="1009" d="M193 0v1436h757v-146h-592v-528h521v-146h-521v-616h-165z" />
<glyph unicode="G" horiz-adv-x="1302" d="M125 713q0 371 172 557t444 186q266 0 396 -123l-107 -125q-102 98 -299 99q-86 0 -157.5 -26t-138 -87t-104.5 -180t-38 -287q0 -315 108.5 -459.5t325.5 -144.5q168 0 252 57v549h164v-620q-158 -129 -451 -129q-279 0 -423 184t-144 549z" />
<glyph unicode="H" horiz-adv-x="1406" d="M193 0v1436h163v-637h695v637h163v-1436h-163v653h-695v-653h-163z" />
<glyph unicode="I" horiz-adv-x="589" d="M213 0v1436h164v-1436h-164z" />
<glyph unicode="J" horiz-adv-x="794" d="M18 18l54 150q80 -47 194 -47q92 0 132 43t40 137v1135h162v-1139q0 -145 -84 -234.5t-260 -89.5q-144 0 -238 45z" />
<glyph unicode="K" horiz-adv-x="1183" d="M193 0v1436h163v-1436h-163zM410 711v8l505 717h191l-510 -717l557 -719h-209z" />
<glyph unicode="L" horiz-adv-x="1005" d="M193 0v1436h163v-1291h617v-145h-780z" />
<glyph unicode="M" horiz-adv-x="1746" d="M195 0v1436h262l411 -1024h13l411 1024h260v-1436h-157v1243h-13q-70 -172 -212 -518t-212 -518h-174l-422 1036h-12v-1243h-155z" />
<glyph unicode="N" horiz-adv-x="1431" d="M195 0v1436h229l483 -910q113 -213 166 -323h14q-4 131 -4 385v848h154v-1436h-225l-488 915q-68 123 -164 326h-16q6 -184 6 -381v-860h-155z" />
<glyph unicode="O" horiz-adv-x="1363" d="M125 711q0 745 565 745q549 0 549 -731q0 -745 -565 -745q-266 0 -407.5 174t-141.5 557zM293 725q0 -322 101.5 -460t289.5 -138q190 0 288.5 133t98.5 451q0 322 -101.5 460t-291.5 138q-188 0 -286.5 -133.5t-98.5 -450.5z" />
<glyph unicode="P" horiz-adv-x="1146" d="M193 0v1436h413q221 0 343 -100.5t122 -311.5q0 -219 -126 -338t-370 -119h-219v-567h-163zM356 711h219q174 0 250 73.5t76 221.5q0 150 -82 217t-250 67h-213v-579z" />
<glyph unicode="Q" horiz-adv-x="1376" d="M131 711q0 745 565 745q268 0 409.5 -174t141.5 -557q0 -567 -319 -694v-8l397 -240l-170 -94l-422 295q-28 -2 -55 -2q-131 0 -230 41q-120 49 -187.5 150t-98.5 233.5t-31 304.5zM299 725q0 -322 101.5 -460t292 -138t288.5 133t98 451q0 324 -100 461t-293 137 q-188 0 -287.5 -133.5t-99.5 -450.5z" />
<glyph unicode="R" horiz-adv-x="1218" d="M193 0v1436h360q479 0 479 -404q0 -168 -93 -272.5t-230 -118.5v-8q90 -41 174 -184l264 -449h-195l-260 459q-80 137 -223 137h-113v-596h-163zM356 737h185q323 0 323 275q0 150 -83 214t-251 64h-174v-553z" />
<glyph unicode="S" horiz-adv-x="1091" d="M63 131l97 131q163 -135 366 -135q141 0 220 67.5t79 172.5q0 66 -37.5 117t-98 85.5t-133.5 67.5t-145.5 69.5t-133 83t-98.5 118t-38 163.5q0 164 126 274.5t319 110.5q223 0 370 -121l-100 -127q-123 98 -281 99q-123 0 -195.5 -62.5t-72.5 -163.5q0 -68 38 -120 t98.5 -87.5t133 -68.5t145.5 -70t133 -82t98 -115.5t38 -160.5q0 -170 -128 -283.5t-351 -113.5q-281 0 -449 151z" />
<glyph unicode="T" horiz-adv-x="976" d="M25 1290v146h927v-146h-381v-1290h-163v1290h-383z" />
<glyph unicode="U" horiz-adv-x="1392" d="M186 475v961h164v-936q0 -188 93 -280.5t259 -92.5q340 0 340 352v957h164v-936q0 -254 -138 -387t-384 -133q-240 0 -369 131t-129 364z" />
<glyph unicode="V" horiz-adv-x="1228" d="M20 1436h179l329 -1033q78 -250 86 -278h9q14 53 44.5 150.5t41.5 127.5l331 1033h168l-469 -1436h-250z" />
<glyph unicode="W" horiz-adv-x="1896" d="M18 1436h170l230 -889q61 -239 92 -391h8q16 76 88 366l225 914h236l233 -924q45 -172 86 -354h9q53 236 88 370l231 908h162l-369 -1436h-237l-230 918q-33 129 -90 370h-8q-41 -193 -84 -358l-233 -930h-236z" />
<glyph unicode="X" horiz-adv-x="1204" d="M35 0l469 737l-443 699h195l344 -564h10l340 564h185l-439 -695l473 -741h-194l-375 606h-10l-369 -606h-186z" />
<glyph unicode="Y" horiz-adv-x="1107" d="M-2 1436h186l371 -750h8l371 750h176l-475 -918v-518h-162v518z" />
<glyph unicode="Z" horiz-adv-x="1056" d="M57 147l725 1133v8h-659v148h825l27 -148l-721 -1132v-9h727v-147h-897z" />
<glyph unicode="[" horiz-adv-x="630" d="M197 -440v2091h393v-121h-244v-1847h244v-123h-393z" />
<glyph unicode="\" horiz-adv-x="692" d="M-4 1495h145l555 -1771h-143z" />
<glyph unicode="]" horiz-adv-x="630" d="M41 -317h244v1847h-244v121h393v-2091h-393v123z" />
<glyph unicode="^" horiz-adv-x="1083" d="M86 637l358 799h197l356 -797h-161l-170 393l-121 293h-8l-119 -295l-170 -393h-162z" />
<glyph unicode="_" horiz-adv-x="995" d="M0 -104h995v-138h-995v138z" />
<glyph unicode="`" horiz-adv-x="1028" d="M262 1528l154 86l350 -262l-98 -74z" />
<glyph unicode="a" horiz-adv-x="1116" d="M109 274q-1 182 167 274q160 88 444 87h25v121q0 131 -59 183t-176 52q-170 0 -254 -135l-117 92q133 182 375 182q379 0 379 -337v-504q0 -168 108 -168h29v-117q-23 -12 -57 -12q-156 0 -203 135h-8q-129 -150 -332 -150q-147 0 -234 88.5t-87 208.5zM266 287 q0 -76 53.5 -127t147.5 -51q88 0 161.5 44t116.5 107v250q-27 1 -53 1q-177 0 -293 -48q-133 -55 -133 -176z" />
<glyph unicode="b" horiz-adv-x="1140" d="M170 39v1515h158v-516h8q104 86 270 86q188 0 306 -131t118 -401q0 -281 -139 -446.5t-408 -165.5q-198 0 -313 59zM330 150q72 -31 178 -31q168 0 265 114.5t97 335.5q0 223 -87 319.5t-220 96.5q-68 0 -132 -29.5t-101 -81.5v-724z" />
<glyph unicode="c" horiz-adv-x="966" d="M111 541q0 295 129 443.5t344 148.5t317 -117l-106 -117q-88 92 -220 92q-301 0 -301 -430q0 -438 301 -438q139 0 218 88l98 -111q-103 -118 -326 -118h-4q-450 0 -450 559z" />
<glyph unicode="d" d="M111 508q0 295 143 450.5t385 155.5q86 0 178 -18v458h158v-1554h-119l-35 113h-8q-37 -55 -113.5 -95.5t-177.5 -40.5q-195 0 -303 132.5t-108 398.5zM272 526q0 -217 80 -314t205 -97q186 0 260 180v653q-80 27 -170 27q-375 0 -375 -449z" />
<glyph unicode="e" horiz-adv-x="1112" d="M111 563q0 285 135 427.5t338 142.5q195 0 300 -117t105 -320q0 -84 -12 -192h-709q10 -203 96.5 -291t256.5 -88q78 0 148.5 24.5t109.5 59.5l71 -123q-133 -100 -350 -100q-246 0 -367.5 136t-121.5 441zM270 635h559q2 25 2 63q0 297 -262 297q-121 0 -204.5 -86 t-94.5 -274z" />
<glyph unicode="f" horiz-adv-x="735" d="M57 989v125h187v168q0 133 79.5 212t237.5 79q98 0 172 -25l-33 -135q-59 20 -149 21q-78 0 -113 -37t-35 -113v-170h289v-125h-291v-989h-159v989h-185z" />
<glyph unicode="g" horiz-adv-x="1140" d="M111 528q0 276 137 436t405 160q199 0 318 -57v-1075q0 -215 -122 -326.5t-337 -111.5q-248 0 -367 118l93 127q104 -104 292 -104q150 0 217.5 72.5t67.5 224.5v102h-8q-100 -88 -272 -88q-186 0 -305 127t-119 395zM272 549q0 -403 306 -404q152 0 235 109v700 q-78 31 -182 31q-166 0 -262.5 -110.5t-96.5 -325.5z" />
<glyph unicode="h" horiz-adv-x="1175" d="M170 0v1554h160v-563h8q118 142 321 142q162 0 257.5 -96.5t95.5 -266.5v-770h-160v745q0 109 -58.5 177.5t-166.5 68.5q-106 0 -185.5 -58.5t-111.5 -137.5v-795h-160z" />
<glyph unicode="i" horiz-adv-x="591" d="M178 1440q0 51 34 83.5t81 32.5q51 0 85 -32.5t34 -83.5q0 -49 -34 -82t-85 -33q-47 0 -81 33t-34 82zM223 0v1114h160v-1114h-160z" />
<glyph unicode="j" horiz-adv-x="518" d="M-53 -319q113 39 173 121.5t60 271.5v1040h160v-1044q0 -419 -338 -523zM137 1440q0 51 33 83.5t82 32.5q51 0 84 -32.5t33 -83.5q0 -49 -33 -82t-84 -33q-49 0 -82 33t-33 82z" />
<glyph unicode="k" horiz-adv-x="1026" d="M170 0v1554h160v-1554h-160zM360 571v9l400 534h198l-411 -530v-9l436 -575h-203z" />
<glyph unicode="l" horiz-adv-x="589" d="M182 221v1333h158v-1290q0 -74 27.5 -107.5t89.5 -33.5q47 0 92 22v-135q-53 -24 -133 -24h-6q-113 0 -170.5 61.5t-57.5 173.5z" />
<glyph unicode="m" horiz-adv-x="1759" d="M170 0v1114h123l33 -119h8q92 141 289 142q223 0 295 -176h8q35 76 118.5 126t206.5 50q168 0 256 -93.5t88 -275.5v-768h-157v735q0 127 -57.5 193.5t-161.5 66.5q-96 0 -164 -55t-92 -131v-809h-160v723q0 133 -57.5 202.5t-163.5 69.5q-98 0 -166 -59t-86 -139v-797 h-160z" />
<glyph unicode="n" horiz-adv-x="1175" d="M170 0v1114h121l33 -117h8q37 45 120 92.5t197 47.5q170 0 264.5 -93.5t98.5 -275.5v-768h-160v731q0 127 -61.5 195.5t-178.5 68.5q-98 0 -175 -56t-107 -142v-797h-160z" />
<glyph unicode="o" d="M111 555q0 580 467 580q456 0 456 -568q0 -275 -114 -429q-114 -156 -355 -156q-455 0 -454 573zM274 567q0 -227 73 -336.5t230.5 -109.5t225 104.5t67.5 327.5q0 227 -72.5 335.5t-232.5 108.5q-156 0 -223.5 -104.5t-67.5 -325.5z" />
<glyph unicode="p" d="M170 -397v1511h119l35 -113h8q98 133 289 134q197 0 305 -133.5t108 -399.5q0 -287 -143 -445.5t-387 -158.5q-94 0 -176 18v-413h-158zM328 164q70 -25 168 -25q376 0 376 443q0 219 -82 317q-81 98 -206 98q-172 0 -256 -155v-678z" />
<glyph unicode="q" horiz-adv-x="1140" d="M111 512q0 281 137 446.5t405 165.5q199 0 318 -59v-1462h-156v463h-8q-104 -86 -275 -86q-186 0 -303.5 131t-117.5 401zM272 532q0 -225 86 -319t220 -94q68 0 132 29.5t103 78.5v725q-71 33 -184 33q-166 0 -261.5 -116.5t-95.5 -336.5z" />
<glyph unicode="r" horiz-adv-x="739" d="M170 0v1114h121l35 -123h8q39 63 112.5 102.5t167.5 39.5q72 -1 113 -11v-166q-55 16 -125 17q-88 0 -161.5 -36t-112.5 -108v-829h-158z" />
<glyph unicode="s" horiz-adv-x="970" d="M61 123l99 119q119 -123 303 -123q111 0 171 50t60 126q0 70 -58 115t-140 73.5t-165 62.5t-141.5 103.5t-58.5 173.5q0 127 103.5 218.5t277.5 91.5q213 0 326 -119l-103 -111q-86 90 -227 90q-109 0 -164 -47t-55 -119q0 -68 58.5 -112.5t140 -73.5t164.5 -62.5 t141.5 -104.5t58.5 -175q0 -127 -104.5 -222t-292.5 -95q-129 0 -232.5 40.5t-161.5 100.5z" />
<glyph unicode="t" horiz-adv-x="780" d="M39 985v102l166 31l49 289h108v-293h308v-129h-308v-680q0 -176 162 -176q109 0 170 39l45 -127q-90 -51 -250 -51q-285 0 -284 307v688h-166z" />
<glyph unicode="u" horiz-adv-x="1177" d="M164 352v762h160v-729q0 -270 243 -270q123 0 201 69.5t80 198.5v731h160v-1114h-125l-31 117h-8q-35 -49 -115 -94.5t-203 -45.5q-354 0 -362 375z" />
<glyph unicode="v" horiz-adv-x="989" d="M23 1114h174l217 -668q45 -135 82 -292h8q20 90 84 292l213 668h166l-377 -1114h-184z" />
<glyph unicode="w" horiz-adv-x="1548" d="M27 1114h163l156 -614q53 -209 84 -359h8q41 197 72 316l168 657h205l164 -657q51 -215 71 -316h8q45 207 86 361l158 612h154l-299 -1114h-215l-228 950h-8l-237 -950h-215z" />
<glyph unicode="x" horiz-adv-x="983" d="M37 0l360 580l-340 534h185l250 -414h8l237 414h187l-338 -539l358 -575h-184l-268 453h-9l-260 -453h-186z" />
<glyph unicode="y" horiz-adv-x="1019" d="M45 1114h172l180 -547q84 -256 125 -405h8q31 137 115 405l172 547h166l-393 -1192q-57 -170 -151.5 -260t-256.5 -90q-74 0 -127 20l25 142q51 -18 104 -19q104 0 166 58.5t99 187.5z" />
<glyph unicode="z" horiz-adv-x="919" d="M74 158l557 809v8h-514v139h659l33 -158l-559 -809v-8h575v-139h-727z" />
<glyph unicode="{" horiz-adv-x="675" d="M135 530v156q96 14 140 64.5t44 142.5q0 66 -24.5 218.5t-24.5 240.5q0 309 283 309q66 0 117 -21l-25 -116q-45 16 -88 16q-137 0 -137 -192q0 -74 23.5 -228.5t23.5 -220.5q0 -231 -188 -287v-8q188 -57 188 -289q0 -66 -23.5 -222t-23.5 -230q0 -193 137 -193 q43 0 88 17l25 -117q-51 -20 -113 -21q-287 0 -287 310q0 88 24.5 242.5t24.5 222.5q0 176 -184 206z" />
<glyph unicode="|" horiz-adv-x="555" d="M215 -508v2224h125v-2224h-125z" />
<glyph unicode="}" horiz-adv-x="675" d="M6 -430l25 117q45 -16 86 -17q137 0 137 193q0 74 -23.5 230.5t-23.5 221.5q0 229 190 289v8q-190 55 -190 287q0 66 23.5 220.5t23.5 228.5q0 193 -137 192q-41 0 -86 -16l-25 116q51 20 115 21q283 0 282 -309q0 -88 -23.5 -241t-23.5 -218q0 -92 44.5 -142.5 t140.5 -64.5v-156q-184 -31 -185 -206q0 -68 23.5 -222.5t23.5 -242.5q0 -309 -284 -310q-61 0 -113 21z" />
<glyph unicode="~" horiz-adv-x="1083" d="M47 580q0 111 61.5 174t167.5 63q100 0 275.5 -76.5t247.5 -76.5q100 0 100 110q0 25 -6 53l139 -18q2 -18 2 -61q-2 -106 -63.5 -167t-163.5 -61t-278.5 78t-245.5 78q-100 0 -101 -111q0 -25 6 -53l-139 18q-2 14 -2 50z" />
<glyph unicode="&#xa1;" horiz-adv-x="579" d="M166 1014q0 51 37 86t90 35q49 0 85 -35t36 -86q0 -53 -36 -89t-85 -36q-53 0 -90 36t-37 89zM190 -315l41 899h127l41 -899h-209z" />
<glyph unicode="&#xa2;" horiz-adv-x="964" d="M111 541q0 295 130 443.5t343 148.5q86 0 157 -21l90 248h121l-108 -295q20 -14 57 -51l-117 -115l-280 -770q35 -6 71 -6q137 0 218 90l96 -113q-96 -119 -330 -118q-49 0 -104 10l-93 -254h-120l104 289q-236 111 -235 514zM272 561q0 -285 127 -385h2l289 797 q-43 20 -117 20q-301 0 -301 -432z" />
<glyph unicode="&#xa3;" horiz-adv-x="1118" d="M117 147q141 76 151 277l17 211h-158v135h166l20 256q14 195 128 297t292 102q211 0 324 -129l-109 -114q-86 102 -239 102q-213 0 -232 -252l-20 -262h438v-135h-449l-14 -207q-16 -206 -129 -278v-9h748v-141h-906z" />
<glyph unicode="&#xa4;" horiz-adv-x="1081" d="M55 287l119 119q-78 108 -78 258q0 147 82 262l-123 125l103 100l123 -125q117 84 266 84q143 0 258 -76l119 117l102 -100l-119 -119q78 -111 78 -256.5t-86 -263.5l127 -125l-102 -101l-127 125q-115 -80 -262.5 -80t-255.5 74l-121 -119zM236 672q0 -133 86 -220 t219 -87t219 86t86 219q0 131 -86 219t-219 88t-219 -87t-86 -218z" />
<glyph unicode="&#xa5;" horiz-adv-x="1058" d="M2 1415h186l215 -457l125 -301h9l129 306l215 452h176l-371 -749h326v-140h-402v-526h-161v526h-406v140h326z" />
<glyph unicode="&#xa6;" horiz-adv-x="559" d="M217 -311v700h125v-700h-125zM217 811v700h125v-700h-125z" />
<glyph unicode="&#xa7;" horiz-adv-x="1173" d="M139 944q0 231 164 398t430 167q94 0 166 -18l-25 -131q-76 23 -145 22q-147 0 -227 -63.5t-80 -167.5q0 -74 46 -144.5t116.5 -126t151.5 -123t151.5 -134t117 -161.5t46.5 -202q0 -229 -173 -388t-460 -159q-101 0 -187 23l25 135q76 -29 170 -29q168 0 247 71t79 173 q0 82 -63.5 157.5t-153 141.5t-179.5 139.5t-153.5 182t-63.5 237.5zM256 952q0 -102 62.5 -192t150.5 -157.5t177 -136.5t152.5 -158t65.5 -189q2 -41 -14 -96h10q70 100 70 237q0 106 -62.5 198.5t-151.5 161t-179.5 137t-155 158t-66.5 189.5q0 35 11 82h-9 q-61 -94 -61 -234z" />
<glyph unicode="&#xa8;" horiz-adv-x="1028" d="M217 1454q0 43 27.5 71.5t72.5 28.5q43 0 72 -28.5t29 -71.5t-29 -71.5t-72 -28.5q-45 0 -72.5 28.5t-27.5 71.5zM608 1454q0 43 30 71.5t73 28.5t71.5 -28.5t28.5 -71.5t-28.5 -71.5t-71.5 -28.5t-73 28.5t-30 71.5z" />
<glyph unicode="&#xa9;" horiz-adv-x="1705" d="M113 702.5q0 319.5 211 527.5t530 208q326 0 532.5 -205t206.5 -524q0 -317 -211 -525.5t-530 -208.5q-326 0 -532.5 204t-206.5 523.5zM252 708.5q0 -262.5 170 -434.5t432 -172t431 169t169 431q0 264 -169 435.5t-433 171.5t-432 -169t-168 -431.5zM532 700.5 q0 200.5 95.5 312t253.5 111.5q162 0 225 -84l-74 -96q-59 66 -155.5 66t-152.5 -74t-56 -225q0 -299 213 -299q92 0 151 63l70 -96q-86 -82 -232 -82q-160 0 -249 101.5t-89 302z" />
<glyph unicode="&#xab;" horiz-adv-x="1007" d="M90 553l313 434l105 -82l-242 -352l242 -350l-105 -80zM498 553l313 434l104 -82l-241 -352l241 -350l-104 -80z" />
<glyph unicode="&#xac;" horiz-adv-x="1081" d="M41 776v135h997v-518h-141v383h-856z" />
<glyph unicode="&#xad;" horiz-adv-x="690" d="M49 539v143h592v-143h-592z" />
<glyph unicode="&#xae;" horiz-adv-x="1044" d="M92 1024q0 188 122 309t308 121q190 0 311 -116.5t121 -307.5q0 -188 -122.5 -309t-311 -121t-308.5 117t-120 307zM184 1028q0 -150 96.5 -247t239.5 -97q147 0 243.5 96.5t96.5 246t-96 245.5t-242 96q-147 0 -242.5 -94t-95.5 -246zM387 815v447h143q152 0 152 -132 q0 -106 -82 -126l109 -189h-103l-86 166h-47v-166h-86zM473 1055h51q70 0 70 67q0 66 -64 66h-57v-133z" />
<glyph unicode="&#xaf;" horiz-adv-x="1028" d="M201 1368v127h624v-127h-624z" />
<glyph unicode="&#xb0;" horiz-adv-x="712" d="M68 1147q0 127 82.5 208t209.5 81q129 0 208 -77t79 -204q0 -125 -84 -206t-211 -81t-205.5 77t-78.5 202zM180 1153q0 -78 52.5 -131t127.5 -53q78 0 125 52t47 130t-51 131t-129 53q-76 0 -124 -52t-48 -130z" />
<glyph unicode="&#xb1;" horiz-adv-x="1077" d="M61 86v141h404v398h-404v141h404v408h145v-408h406v-141h-406v-398h406v-141h-955z" />
<glyph unicode="&#xb2;" horiz-adv-x="714" d="M49 907l137 137q137 137 201 207q92 102 92 187q0 129 -135 129q-59 0 -96 -36t-47 -87l-131 31q23 86 92 141t184 55q127 0 196.5 -60.5t69.5 -162.5q0 -129 -129 -268q-71 -76 -143 -150l-125 -117l162 2h258v-108h-567z" />
<glyph unicode="&#xb3;" horiz-adv-x="718" d="M61 926l105 65q63 -98 180 -98q166 0 166 147q0 74 -48 108t-153 34h-69v96h69q174 0 174 156q0 57 -36.5 95t-108.5 38q-115 0 -145 -113l-123 25q16 84 88.5 138t183.5 54q127 0 199.5 -58t72.5 -167q0 -152 -122 -207q147 -33 147 -192q0 -125 -80 -192t-229 -67 q-188 0 -271 138z" />
<glyph unicode="&#xb4;" horiz-adv-x="1028" d="M262 1352l348 262l156 -86l-406 -250z" />
<glyph unicode="&#xb5;" horiz-adv-x="1241" d="M170 -397v1511h160v-708q0 -147 59.5 -216t183.5 -69q129 0 205 73.5t76 217.5v702h158v-784q0 -109 28.5 -154t94.5 -45q6 0 26 4v-129q-37 -10 -67 -10q-164 0 -205 156h-8q-86 -170 -316 -170q-147 0 -237 90v-469h-158z" />
<glyph unicode="&#xb6;" horiz-adv-x="1159" d="M57 1026q0 203 111 306.5t309 103.5h98v-1305q0 -311 -221 -483l-92 90q96 78 141.5 161t45.5 246v502q-8 0 -21.5 -1t-19.5 -1q-162 0 -256.5 95.5t-94.5 285.5zM782 0v1436h125v-1436h-125z" />
<glyph unicode="&#xb7;" horiz-adv-x="468" d="M109 719q0 55 35.5 92t89 37t90 -37t36.5 -92q0 -51 -36.5 -87t-90.5 -36q-51 0 -87.5 36t-36.5 87z" />
<glyph unicode="&#xb8;" horiz-adv-x="1028" d="M385 -399q119 57 119 157q0 66 -47 129v9h147q37 -54 37 -132q0 -180 -201 -249z" />
<glyph unicode="&#xb9;" horiz-adv-x="591" d="M25 1489l280 164h137v-846h-133v514q0 49 1 97t3 78t2 34h-6l-90 -68l-127 -78z" />
<glyph unicode="&#xbb;" horiz-adv-x="1007" d="M90 203l242 350l-242 352l105 82l313 -434l-313 -430zM498 203l241 350l-241 352l104 82l313 -434l-313 -430z" />
<glyph unicode="&#xbf;" horiz-adv-x="823" d="M92 -14q0 129 53.5 217t163.5 190l240 223q76 -31 76 -96q0 -41 -38 -87t-91.5 -89t-107.5 -91t-92 -111.5t-38 -133.5q0 -94 54.5 -146t154.5 -52q152 0 252 104l106 -127q-137 -123 -362 -123q-172 0 -271.5 84t-99.5 238zM342 1014q0 51 36 86t89 35q51 0 86 -35 t35 -86q0 -53 -35 -89t-86 -36q-53 0 -89 36t-36 89z" />
<glyph unicode="&#xc0;" horiz-adv-x="1216" d="M16 0l465 1436h254l465 -1436h-172l-133 418h-578l-133 -418h-168zM182 1829l154 86l350 -262l-98 -74zM365 563h483l-154 484q-10 33 -84 276h-8q-21 -71 -82 -272z" />
<glyph unicode="&#xc1;" horiz-adv-x="1216" d="M16 0l465 1436h254l465 -1436h-172l-133 418h-578l-133 -418h-168zM365 563h483l-154 484q-10 33 -84 276h-8q-21 -71 -82 -272zM504 1686l348 262l156 -86l-406 -250z" />
<glyph unicode="&#xc2;" horiz-adv-x="1216" d="M16 0l465 1436h254l465 -1436h-172l-133 418h-578l-133 -418h-168zM213 1704l393 256l395 -256l-59 -94l-336 194l-334 -194zM365 563h483l-154 484q-10 33 -84 276h-8q-21 -71 -82 -272z" />
<glyph unicode="&#xc3;" horiz-adv-x="1216" d="M16 0l465 1436h254l465 -1436h-172l-133 418h-578l-133 -418h-168zM270 1778q84 84 197 84q57 0 150.5 -36t132.5 -36q84 0 131 61l63 -100q-12 -27 -62.5 -58.5t-123.5 -31.5q-49 0 -145.5 37t-137.5 37q-84 0 -141 -60zM365 563h483l-154 484q-10 33 -84 276h-8 q-21 -71 -82 -272z" />
<glyph unicode="&#xc4;" horiz-adv-x="1216" d="M16 0l465 1436h254l465 -1436h-172l-133 418h-578l-133 -418h-168zM311 1788q0 43 28 71.5t73 28.5q43 0 71.5 -28.5t28.5 -71.5t-28.5 -71.5t-71.5 -28.5q-45 0 -73 28.5t-28 71.5zM365 563h483l-154 484q-10 33 -84 276h-8q-21 -71 -82 -272zM702 1788q0 43 30 71.5 t73 28.5t71.5 -28.5t28.5 -71.5t-28.5 -71.5t-71.5 -28.5t-73 28.5t-30 71.5z" />
<glyph unicode="&#xc5;" horiz-adv-x="1216" d="M16 0l465 1436h254l465 -1436h-172l-133 418h-578l-133 -418h-168zM365 563h483l-154 484q-10 33 -84 276h-8q-21 -71 -82 -272zM385 1792q0 98 62.5 160.5t163 62.5t160.5 -57t60 -154q0 -98 -63 -160.5t-163.5 -62.5t-160 57.5t-59.5 153.5zM485 1800q0 -55 34 -90 t91 -35q55 0 86 33t31 88q0 57 -32.5 91t-90.5 34q-55 0 -87 -33t-32 -88z" />
<glyph unicode="&#xc6;" horiz-adv-x="1740" d="M-10 0l790 1436h834v-146h-572v-489h500v-146h-500v-510h603v-145h-756v442h-481l-244 -442h-174zM483 586h406v727h-8z" />
<glyph unicode="&#xc7;" horiz-adv-x="1165" d="M125 707q0 356 151.5 552.5t436.5 196.5q244 0 381 -119l-103 -125q-115 96 -295 97q-193 0 -298 -145.5t-105 -442.5q0 -291 106.5 -441.5t313.5 -150.5q188 0 280 88l90 -117q-125 -121 -393 -120q-287 0 -426 191.5t-139 535.5zM551 -399q119 57 119 157q0 66 -47 129 v9h147q37 -54 37 -132q0 -180 -201 -249z" />
<glyph unicode="&#xc8;" horiz-adv-x="1079" d="M170 1862l154 86l350 -262l-99 -74zM193 0v1436h761v-146h-598v-489h527v-146h-527v-510h627v-145h-790z" />
<glyph unicode="&#xc9;" horiz-adv-x="1079" d="M193 0v1436h761v-146h-598v-489h527v-146h-527v-510h627v-145h-790zM483 1686l348 262l156 -86l-405 -250z" />
<glyph unicode="&#xca;" horiz-adv-x="1079" d="M166 1704l393 256l395 -256l-59 -94l-336 194l-334 -194zM193 0v1436h761v-146h-598v-489h527v-146h-527v-510h627v-145h-790z" />
<glyph unicode="&#xcb;" horiz-adv-x="1079" d="M193 0v1436h761v-146h-598v-489h527v-146h-527v-510h627v-145h-790zM274 1788q0 43 28 71.5t73 28.5q43 0 71.5 -28.5t28.5 -71.5t-28.5 -71.5t-71.5 -28.5q-45 0 -73 28.5t-28 71.5zM666 1788q0 43 29.5 71.5t72.5 28.5t71.5 -28.5t28.5 -71.5t-28.5 -71.5t-71.5 -28.5 t-72.5 28.5t-29.5 71.5z" />
<glyph unicode="&#xcc;" horiz-adv-x="589" d="M-106 1862l153 86l350 -262l-98 -74zM213 0v1436h164v-1436h-164z" />
<glyph unicode="&#xcd;" horiz-adv-x="589" d="M182 1686l348 262l156 -86l-405 -250zM213 0v1436h164v-1436h-164z" />
<glyph unicode="&#xce;" horiz-adv-x="589" d="M-100 1704l393 256l395 -256l-59 -94l-336 194l-334 -194zM213 0v1436h164v-1436h-164z" />
<glyph unicode="&#xcf;" horiz-adv-x="589" d="M-2 1788q0 43 27.5 71.5t72.5 28.5q43 0 72 -28.5t29 -71.5t-29 -71.5t-72 -28.5q-45 0 -72.5 28.5t-27.5 71.5zM213 0v1436h164v-1436h-164zM389 1788q0 43 30 71.5t73 28.5t71.5 -28.5t28.5 -71.5t-28.5 -71.5t-71.5 -28.5t-73 28.5t-30 71.5z" />
<glyph unicode="&#xd0;" horiz-adv-x="1335" d="M53 676v121h154v639h377q324 0 475 -171t151 -534q0 -731 -630 -731h-373v676h-154zM369 145h211q240 0 351 132.5t111 435.5q0 311 -117.5 444t-355.5 133h-200v-493h329v-121h-329v-531z" />
<glyph unicode="&#xd1;" horiz-adv-x="1431" d="M195 0v1436h229l483 -910q113 -213 166 -323h14q-4 131 -4 385v848h154v-1436h-225l-488 915q-68 123 -164 326h-16q6 -184 6 -381v-860h-155zM379 1778q83 84 196 84q57 0 150.5 -36t132.5 -36q84 0 131 61l64 -100q-12 -27 -62.5 -58.5t-124.5 -31.5q-47 0 -143 37 t-139 37q-84 0 -142 -60z" />
<glyph unicode="&#xd2;" horiz-adv-x="1374" d="M131 711q0 745 565 745q549 0 549 -731q0 -745 -565 -745q-266 0 -407.5 174t-141.5 557zM285 1862l153 86l350 -262l-98 -74zM299 725q0 -322 101.5 -460t289.5 -138q190 0 288.5 133t98.5 451q0 322 -101.5 460t-291.5 138q-188 0 -286.5 -133.5t-98.5 -450.5z" />
<glyph unicode="&#xd3;" horiz-adv-x="1374" d="M131 711q0 745 565 745q549 0 549 -731q0 -745 -565 -745q-266 0 -407.5 174t-141.5 557zM299 725q0 -322 101.5 -460t289.5 -138q190 0 288.5 133t98.5 451q0 322 -101.5 460t-291.5 138q-188 0 -286.5 -133.5t-98.5 -450.5zM584 1686l348 262l155 -86l-405 -250z" />
<glyph unicode="&#xd4;" horiz-adv-x="1374" d="M131 711q0 745 565 745q549 0 549 -731q0 -745 -565 -745q-266 0 -407.5 174t-141.5 557zM293 1704l393 256l395 -256l-59 -94l-336 194l-334 -194zM299 725q0 -322 101.5 -460t289.5 -138q190 0 288.5 133t98.5 451q0 322 -101.5 460t-291.5 138q-188 0 -286.5 -133.5 t-98.5 -450.5z" />
<glyph unicode="&#xd5;" horiz-adv-x="1374" d="M131 711q0 745 565 745q549 0 549 -731q0 -745 -565 -745q-266 0 -407.5 174t-141.5 557zM299 725q0 -322 101.5 -460t289.5 -138q190 0 288.5 133t98.5 451q0 322 -101.5 460t-291.5 138q-188 0 -286.5 -133.5t-98.5 -450.5zM350 1778q84 84 197 84q57 0 150.5 -36 t131.5 -36q84 0 132 61l63 -100q-12 -27 -62.5 -58.5t-123.5 -31.5q-47 0 -143.5 37t-139.5 37q-84 0 -141 -60z" />
<glyph unicode="&#xd6;" horiz-adv-x="1374" d="M131 711q0 745 565 745q549 0 549 -731q0 -745 -565 -745q-266 0 -407.5 174t-141.5 557zM299 725q0 -322 101.5 -460t289.5 -138q190 0 288.5 133t98.5 451q0 322 -101.5 460t-291.5 138q-188 0 -286.5 -133.5t-98.5 -450.5zM391 1788q0 43 27.5 71.5t73.5 28.5 q43 0 71.5 -28.5t28.5 -71.5t-28.5 -71.5t-71.5 -28.5q-45 0 -73 28.5t-28 71.5zM782 1788q0 43 30 71.5t73 28.5t71.5 -28.5t28.5 -71.5t-28.5 -71.5t-71.5 -28.5t-73 28.5t-30 71.5z" />
<glyph unicode="&#xd7;" horiz-adv-x="1077" d="M125 383l319 313l-319 316l100 96l312 -317l317 319l98 -100l-317 -314l317 -315l-98 -96l-315 315l-314 -317z" />
<glyph unicode="&#xd8;" horiz-adv-x="1374" d="M125 -16l127 190q-127 176 -127 537q0 745 571 745q201 0 332 -100l68 100h153v-2l-127 -194q127 -185 127 -535q0 -745 -571 -745q-207 0 -334 100l-61 -98h-158v2zM293 725q0 -250 65 -387l580 879q-92 92 -254 92q-190 0 -290.5 -133.5t-100.5 -450.5zM438 219 q92 -92 252 -92q190 0 290.5 133.5t100.5 450.5q0 244 -65 387z" />
<glyph unicode="&#xd9;" horiz-adv-x="1392" d="M186 475v961h164v-936q0 -188 93 -280.5t259 -92.5q340 0 340 352v957h164v-936q0 -254 -138 -387t-384 -133q-240 0 -369 131t-129 364zM291 1862l153 86l351 -262l-99 -74z" />
<glyph unicode="&#xda;" horiz-adv-x="1392" d="M186 475v961h164v-936q0 -188 93 -280.5t259 -92.5q340 0 340 352v957h164v-936q0 -254 -138 -387t-384 -133q-240 0 -369 131t-129 364zM618 1686l349 262l155 -86l-405 -250z" />
<glyph unicode="&#xdb;" horiz-adv-x="1392" d="M186 475v961h164v-936q0 -188 93 -280.5t259 -92.5q340 0 340 352v957h164v-936q0 -254 -138 -387t-384 -133q-240 0 -369 131t-129 364zM301 1704l393 256l396 -256l-60 -94l-336 194l-334 -194z" />
<glyph unicode="&#xdc;" horiz-adv-x="1392" d="M186 475v961h164v-936q0 -188 93 -280.5t259 -92.5q340 0 340 352v957h164v-936q0 -254 -138 -387t-384 -133q-240 0 -369 131t-129 364zM399 1788q0 43 28 71.5t73 28.5q43 0 71.5 -28.5t28.5 -71.5t-28.5 -71.5t-71.5 -28.5q-45 0 -73 28.5t-28 71.5zM791 1788 q0 43 29.5 71.5t72.5 28.5t71.5 -28.5t28.5 -71.5t-28.5 -71.5t-71.5 -28.5t-72.5 28.5t-29.5 71.5z" />
<glyph unicode="&#xdd;" horiz-adv-x="1107" d="M-2 1436h186l371 -750h8l371 750h176l-475 -918v-518h-162v518zM475 1686l348 262l156 -86l-406 -250z" />
<glyph unicode="&#xde;" horiz-adv-x="1042" d="M193 0v1436h157v-291q80 25 191 24q188 0 300.5 -105.5t112.5 -318.5q0 -240 -116.5 -358.5t-329.5 -118.5q-92 0 -158 17v-285h-157zM352 434q68 -18 142 -18q293 0 292 309q0 295 -286 295q-78 0 -148 -21v-565z" />
<glyph unicode="&#xdf;" horiz-adv-x="1202" d="M170 0v1118q0 213 115.5 321.5t300.5 108.5q170 0 268 -89t98 -234q0 -86 -36.5 -161t-82 -117t-82 -85t-36.5 -74q0 -39 42 -74.5t101.5 -69.5t119.5 -75t102 -109.5t42 -154.5q0 -135 -99 -228t-286 -93q-180 0 -291 77l68 127q106 -68 234 -67q100 0 159.5 47 t59.5 127q0 63 -43 114.5t-104.5 86t-123 69.5t-104.5 87.5t-43 119.5q0 55 39 110.5t85 96.5t85 104.5t39 133.5q0 94 -60.5 143t-161.5 49q-117 0 -182 -71.5t-65 -217.5v-1120h-158z" />
<glyph unicode="&#xe0;" horiz-adv-x="1120" d="M109 274q0 182 167.5 273.5t468.5 87.5v121q0 131 -59 183t-176 52q-170 0 -254 -135l-117 92q133 182 375 182q379 0 379 -337v-504q0 -168 108 -168h29v-117q-23 -12 -57 -12q-156 0 -203 135h-8q-129 -150 -332 -150q-147 0 -234 88.5t-87 208.5zM121 1528l153 86 l351 -262l-99 -74zM266 287q0 -76 53.5 -127t147.5 -51q88 0 161.5 44t116.5 107v250q-213 8 -346 -47t-133 -176z" />
<glyph unicode="&#xe1;" horiz-adv-x="1120" d="M109 274q0 182 167.5 273.5t468.5 87.5v121q0 131 -59 183t-176 52q-170 0 -254 -135l-117 92q133 182 375 182q379 0 379 -337v-504q0 -168 108 -168h29v-117q-23 -12 -57 -12q-156 0 -203 135h-8q-129 -150 -332 -150q-147 0 -234 88.5t-87 208.5zM266 287 q0 -76 53.5 -127t147.5 -51q88 0 161.5 44t116.5 107v250q-213 8 -346 -47t-133 -176zM438 1352l348 262l156 -86l-405 -250z" />
<glyph unicode="&#xe2;" horiz-adv-x="1120" d="M109 274q0 182 167.5 273.5t468.5 87.5v121q0 131 -59 183t-176 52q-170 0 -254 -135l-117 92q133 182 375 182q379 0 379 -337v-504q0 -168 108 -168h29v-117q-23 -12 -57 -12q-156 0 -203 135h-8q-129 -150 -332 -150q-147 0 -234 88.5t-87 208.5zM143 1370l394 256 l395 -256l-60 -94l-335 194l-334 -194zM266 287q0 -76 53.5 -127t147.5 -51q88 0 161.5 44t116.5 107v250q-213 8 -346 -47t-133 -176z" />
<glyph unicode="&#xe3;" horiz-adv-x="1120" d="M109 274q0 182 167.5 273.5t468.5 87.5v121q0 131 -59 183t-176 52q-170 0 -254 -135l-117 92q133 182 375 182q379 0 379 -337v-504q0 -168 108 -168h29v-117q-23 -12 -57 -12q-156 0 -203 135h-8q-129 -150 -332 -150q-147 0 -234 88.5t-87 208.5zM221 1444 q84 84 197 84q57 0 150.5 -36t131.5 -36q84 0 131 62l64 -101q-12 -27 -62.5 -58.5t-123.5 -31.5q-49 0 -145.5 37t-137.5 37q-84 0 -141 -60zM266 287q0 -76 53.5 -127t147.5 -51q88 0 161.5 44t116.5 107v250q-213 8 -346 -47t-133 -176z" />
<glyph unicode="&#xe4;" horiz-adv-x="1120" d="M109 274q0 182 167.5 273.5t468.5 87.5v121q0 131 -59 183t-176 52q-170 0 -254 -135l-117 92q133 182 375 182q379 0 379 -337v-504q0 -168 108 -168h29v-117q-23 -12 -57 -12q-156 0 -203 135h-8q-129 -150 -332 -150q-147 0 -234 88.5t-87 208.5zM258 1454 q0 43 27.5 71.5t72.5 28.5q43 0 72 -28.5t29 -71.5t-29 -71.5t-72 -28.5q-45 0 -72.5 28.5t-27.5 71.5zM266 287q0 -76 53.5 -127t147.5 -51q88 0 161.5 44t116.5 107v250q-213 8 -346 -47t-133 -176zM649 1454q0 43 30 71.5t73 28.5t71.5 -28.5t28.5 -71.5t-28.5 -71.5 t-71.5 -28.5t-73 28.5t-30 71.5z" />
<glyph unicode="&#xe5;" horiz-adv-x="1120" d="M109 274q0 182 167.5 273.5t468.5 87.5v121q0 131 -59 183t-176 52q-170 0 -254 -135l-117 92q133 182 375 182q379 0 379 -337v-504q0 -168 108 -168h29v-117q-23 -12 -57 -12q-156 0 -203 135h-8q-129 -150 -332 -150q-147 0 -234 88.5t-87 208.5zM266 287 q0 -76 53.5 -127t147.5 -51q88 0 161.5 44t116.5 107v250q-213 8 -346 -47t-133 -176zM336 1458q0 98 62.5 160.5t163 62.5t160.5 -57t60 -154q0 -98 -63.5 -160.5t-163.5 -62.5t-159.5 57.5t-59.5 153.5zM436 1466.5q0 -55.5 34 -90.5t91 -35q55 0 86 33t31 88q0 57 -33 91 t-90 34q-55 0 -87 -32.5t-32 -88z" />
<glyph unicode="&#xe6;" horiz-adv-x="1738" d="M90 281q0 63 16.5 114t60.5 99.5t115.5 81t189.5 52t273 19.5v113q0 231 -241 231q-168 0 -254 -129l-115 105q133 164 377 163q270 0 346 -169h8q121 172 340 172q197 0 304.5 -118t107.5 -323q0 -76 -12 -190h-709q12 -203 98 -290t256 -87q168 0 277 100l78 -125 q-125 -115 -375 -114q-289 -1 -393 194h-9q-86 -205 -383 -205q-182 0 -269 89.5t-87 216.5zM250 299q0 -84 59.5 -140.5t155.5 -56.5q281 0 280 283v139q-260 0 -377.5 -51t-117.5 -174zM897 633h559l2 63q0 145 -69.5 222t-200.5 77q-117 0 -198 -84t-93 -278z" />
<glyph unicode="&#xe7;" horiz-adv-x="966" d="M111 541q0 295 129 443.5t344 148.5t317 -117l-106 -117q-88 92 -220 92q-301 0 -301 -430q0 -438 301 -438q139 0 218 88l98 -111q-104 -119 -330 -118q-450 0 -450 559zM416 -399q119 57 119 157q0 66 -48 129v9h148q37 -54 37 -132q0 -180 -201 -249z" />
<glyph unicode="&#xe8;" horiz-adv-x="1112" d="M111 563q0 285 135 427.5t338 142.5q195 0 300 -117t105 -320q0 -84 -12 -192h-709q10 -203 96.5 -291t256.5 -88q78 0 148.5 24.5t109.5 59.5l71 -123q-133 -100 -350 -100q-246 0 -367.5 136t-121.5 441zM170 1528l154 86l350 -262l-99 -74zM270 635h559q2 25 2 63 q0 297 -262 297q-121 0 -204.5 -86t-94.5 -274z" />
<glyph unicode="&#xe9;" horiz-adv-x="1112" d="M111 563q0 285 135 427.5t338 142.5q195 0 300 -117t105 -320q0 -84 -12 -192h-709q10 -203 96.5 -291t256.5 -88q78 0 148.5 24.5t109.5 59.5l71 -123q-133 -100 -350 -100q-246 0 -367.5 136t-121.5 441zM270 635h559q2 25 2 63q0 297 -262 297q-121 0 -204.5 -86 t-94.5 -274zM489 1352l349 262l155 -86l-405 -250z" />
<glyph unicode="&#xea;" horiz-adv-x="1112" d="M111 563q0 285 135 427.5t338 142.5q195 0 300 -117t105 -320q0 -84 -12 -192h-709q10 -203 96.5 -291t256.5 -88q78 0 148.5 24.5t109.5 59.5l71 -123q-133 -100 -350 -100q-246 0 -367.5 136t-121.5 441zM160 1370l393 256l395 -256l-59 -94l-336 194l-334 -194z M270 635h559q2 25 2 63q0 297 -262 297q-121 0 -204.5 -86t-94.5 -274z" />
<glyph unicode="&#xeb;" horiz-adv-x="1112" d="M111 563q0 285 135 427.5t338 142.5q195 0 300 -117t105 -320q0 -84 -12 -192h-709q10 -203 96.5 -291t256.5 -88q78 0 148.5 24.5t109.5 59.5l71 -123q-133 -100 -350 -100q-246 0 -367.5 136t-121.5 441zM258 1454q0 43 27.5 71.5t72.5 28.5q43 0 72 -28.5t29 -71.5 t-29 -71.5t-72 -28.5q-45 0 -72.5 28.5t-27.5 71.5zM270 635h559q2 25 2 63q0 297 -262 297q-121 0 -204.5 -86t-94.5 -274zM649 1454q0 43 30 71.5t73 28.5t71.5 -28.5t28.5 -71.5t-28.5 -71.5t-71.5 -28.5t-73 28.5t-30 71.5z" />
<glyph unicode="&#xec;" horiz-adv-x="591" d="M-98 1528l153 86l351 -262l-99 -74zM223 0v1114h160v-1114h-160z" />
<glyph unicode="&#xed;" horiz-adv-x="591" d="M188 1352l349 262l155 -86l-405 -250zM223 0v1114h160v-1114h-160z" />
<glyph unicode="&#xee;" horiz-adv-x="591" d="M-98 1370l393 256l395 -256l-59 -94l-336 194l-334 -194zM223 0v1114h160v-1114h-160z" />
<glyph unicode="&#xef;" horiz-adv-x="591" d="M0 1454q0 43 27.5 71.5t72.5 28.5q43 0 72 -28.5t29 -71.5t-29 -71.5t-72 -28.5q-45 0 -72.5 28.5t-27.5 71.5zM223 0v1114h160v-1114h-160zM391 1454q0 43 30 71.5t73 28.5t71.5 -28.5t28.5 -71.5t-28.5 -71.5t-71.5 -28.5t-73 28.5t-30 71.5z" />
<glyph unicode="&#xf0;" horiz-adv-x="1077" d="M96 444q0 221 122 342t300 121q119 0 223 -49l4 4q-49 156 -157 283l-305 -170v127l223 127q-115 102 -275 192v15h234q86 -49 174 -138l258 146v-127l-180 -103q235 -294 235 -663q0 -260 -112.5 -407.5t-329.5 -147.5q-188 0 -301 121t-113 327zM254 458.5 q0 -159.5 72.5 -240.5t201.5 -81q269 0 269 391q0 96 -15 168q-104 76 -250 76q-131 0 -204.5 -77t-73.5 -236.5z" />
<glyph unicode="&#xf1;" horiz-adv-x="1175" d="M170 0v1114h121l33 -117h8q37 45 120 92.5t197 47.5q170 0 264.5 -93.5t98.5 -275.5v-768h-160v731q0 127 -61.5 195.5t-178.5 68.5q-98 0 -175 -56t-107 -142v-797h-160zM250 1444q83 84 196 84q57 0 150.5 -36t132.5 -36q84 0 131 62l64 -101q-12 -27 -62.5 -58.5 t-124.5 -31.5q-49 0 -145 37t-137 37q-84 0 -142 -60z" />
<glyph unicode="&#xf2;" d="M111 555q0 580 467 580q457 0 456 -570q0 -272 -113.5 -427.5t-355.5 -155.5q-455 0 -454 573zM168 1528l154 86l350 -262l-99 -74zM274 567q0 -227 73 -336.5t230.5 -109.5t225 104.5t67.5 327.5q0 227 -72.5 335.5t-232.5 108.5q-156 0 -223.5 -104.5t-67.5 -325.5z " />
<glyph unicode="&#xf3;" d="M111 555q0 580 467 580q457 0 456 -570q0 -272 -113.5 -427.5t-355.5 -155.5q-455 0 -454 573zM274 567q0 -227 73 -336.5t230.5 -109.5t225 104.5t67.5 327.5q0 227 -72.5 335.5t-232.5 108.5q-156 0 -223.5 -104.5t-67.5 -325.5zM465 1352l348 262l156 -86l-406 -250z " />
<glyph unicode="&#xf4;" d="M111 555q0 580 467 580q457 0 456 -570q0 -272 -113.5 -427.5t-355.5 -155.5q-455 0 -454 573zM178 1370l393 256l396 -256l-60 -94l-336 194l-333 -194zM274 567q0 -227 73 -336.5t230.5 -109.5t225 104.5t67.5 327.5q0 227 -72.5 335.5t-232.5 108.5 q-156 0 -223.5 -104.5t-67.5 -325.5z" />
<glyph unicode="&#xf5;" d="M111 555q0 580 467 580q457 0 456 -570q0 -272 -113.5 -427.5t-355.5 -155.5q-455 0 -454 573zM236 1444q83 84 196 84q57 0 150.5 -36t132.5 -36q84 0 131 62l63 -101q-12 -27 -62 -58.5t-124 -31.5q-47 0 -143.5 37t-139.5 37q-84 0 -141 -60zM274 567 q0 -227 73 -336.5t230.5 -109.5t225 104.5t67.5 327.5q0 227 -72.5 335.5t-232.5 108.5q-156 0 -223.5 -104.5t-67.5 -325.5z" />
<glyph unicode="&#xf6;" d="M111 555q0 580 467 580q457 0 456 -570q0 -272 -113.5 -427.5t-355.5 -155.5q-455 0 -454 573zM274 567q0 -227 73 -336.5t230.5 -109.5t225 104.5t67.5 327.5q0 227 -72.5 335.5t-232.5 108.5q-156 0 -223.5 -104.5t-67.5 -325.5zM276 1454q0 43 28 71.5t73 28.5 q43 0 71.5 -28.5t28.5 -71.5t-28.5 -71.5t-71.5 -28.5q-45 0 -73 28.5t-28 71.5zM668 1454q0 43 29.5 71.5t72.5 28.5t71.5 -28.5t28.5 -71.5t-28.5 -71.5t-71.5 -28.5t-72.5 28.5t-29.5 71.5z" />
<glyph unicode="&#xf7;" horiz-adv-x="1077" d="M61 625v141h955v-141h-955zM418 326q0 51 33.5 85.5t83.5 34.5q51 0 85.5 -34.5t34.5 -85.5q0 -49 -34.5 -83t-85.5 -34q-49 0 -83 35t-34 82zM418 1065q0 51 33.5 86t83.5 35q51 0 85.5 -35t34.5 -86q0 -49 -34.5 -84t-85.5 -35q-49 0 -83 35t-34 84z" />
<glyph unicode="&#xf8;" d="M111 555q0 580 467 580q162 0 264 -72l47 72h141v-7l-100 -147q104 -141 104 -416q0 -272 -113.5 -427.5t-355.5 -155.5q-160 0 -260 71l-49 -71h-143v6l100 147q-102 141 -102 420zM272 567q0 -180 45 -278l437 647q-68 61 -189 61q-156 0 -224.5 -104.5t-68.5 -325.5z M391 180q68 -59 187 -59q158 0 226 104.5t68 327.5q0 166 -45 272z" />
<glyph unicode="&#xf9;" horiz-adv-x="1177" d="M164 352v762h160v-729q0 -270 243 -270q123 0 201 69.5t80 198.5v731h160v-1114h-125l-31 117h-8q-35 -49 -115 -94.5t-203 -45.5q-354 0 -362 375zM182 1528l154 86l350 -262l-98 -74z" />
<glyph unicode="&#xfa;" horiz-adv-x="1177" d="M164 352v762h160v-729q0 -270 243 -270q123 0 201 69.5t80 198.5v731h160v-1114h-125l-31 117h-8q-35 -49 -115 -94.5t-203 -45.5q-354 0 -362 375zM506 1352l348 262l156 -86l-406 -250z" />
<glyph unicode="&#xfb;" horiz-adv-x="1177" d="M164 352v762h160v-729q0 -270 243 -270q123 0 201 69.5t80 198.5v731h160v-1114h-125l-31 117h-8q-35 -49 -115 -94.5t-203 -45.5q-354 0 -362 375zM195 1370l393 256l395 -256l-59 -94l-336 194l-334 -194z" />
<glyph unicode="&#xfc;" horiz-adv-x="1177" d="M164 352v762h160v-729q0 -270 243 -270q123 0 201 69.5t80 198.5v731h160v-1114h-125l-31 117h-8q-35 -49 -115 -94.5t-203 -45.5q-354 0 -362 375zM291 1454q0 43 27.5 71.5t72.5 28.5q43 0 72 -28.5t29 -71.5t-29 -71.5t-72 -28.5q-45 0 -72.5 28.5t-27.5 71.5z M682 1454q0 43 29.5 71.5t72.5 28.5t72 -28.5t29 -71.5t-29 -71.5t-72 -28.5t-72.5 28.5t-29.5 71.5z" />
<glyph unicode="&#xfd;" horiz-adv-x="1019" d="M45 1114h172l180 -547q84 -256 125 -405h8q31 137 115 405l172 547h166l-393 -1192q-57 -170 -151.5 -260t-256.5 -90q-74 0 -127 20l25 142q51 -18 104 -19q104 0 166 58.5t99 187.5zM442 1352l349 262l155 -86l-405 -250z" />
<glyph unicode="&#xfe;" horiz-adv-x="1142" d="M170 -389v1931h158v-514h8q92 98 274 98q186 0 304 -133t118 -401q0 -287 -137 -448.5t-387 -161.5q-106 0 -180 24v-395h-158zM328 152q80 -29 186 -29q164 0 260 113.5t96 338.5q0 223 -86 317.5t-217 94.5q-66 0 -133 -30.5t-106 -84.5v-720z" />
<glyph unicode="&#xff;" horiz-adv-x="1019" d="M45 1114h172l180 -547q84 -256 125 -405h8q31 137 115 405l172 547h166l-393 -1192q-57 -170 -151.5 -260t-256.5 -90q-74 0 -127 20l25 142q51 -18 104 -19q104 0 166 58.5t99 187.5zM213 1454q0 43 27.5 71.5t72.5 28.5q43 0 72 -28.5t29 -71.5t-29 -71.5t-72 -28.5 q-45 0 -72.5 28.5t-27.5 71.5zM604 1454q0 43 30 71.5t73 28.5t71.5 -28.5t28.5 -71.5t-28.5 -71.5t-71.5 -28.5t-73 28.5t-30 71.5z" />
<glyph unicode="&#x152;" horiz-adv-x="1972" d="M125 711q0 383 150.5 564t420.5 181q281 0 396 -188h6v168h749v-146h-602v-489h529v-146h-529v-510h631v-145h-778v180h-6q-121 -201 -414 -200q-553 0 -553 731zM293 725q0 -319 103.5 -458.5t295.5 -139.5q190 0 292.5 133t102.5 451q0 319 -105 458.5t-298 139.5 q-190 0 -290.5 -133.5t-100.5 -450.5z" />
<glyph unicode="&#x153;" horiz-adv-x="1871" d="M111 555q0 580 467 580q281 0 372 -217h11q111 215 380 215q197 0 303.5 -118t106.5 -323q0 -76 -12 -190h-711q10 -193 97 -285t261 -92q166 0 275 100l78 -125q-125 -115 -373 -114q-310 0 -412 215h-8q-109 -219 -381 -219q-455 0 -454 573zM274 567q0 -227 73 -336.5 t232.5 -109.5t227 105.5t67.5 338.5q0 432 -309 432q-156 0 -223.5 -104.5t-67.5 -325.5zM1030 633h559q2 27 2 63q0 145 -68.5 222t-199.5 77q-135 0 -210 -94t-83 -268z" />
<glyph unicode="&#x178;" horiz-adv-x="1107" d="M-2 1436h186l371 -750h8l371 750h176l-475 -918v-518h-162v518zM258 1788q0 43 27.5 71.5t72.5 28.5q43 0 72 -28.5t29 -71.5t-29 -71.5t-72 -28.5q-45 0 -72.5 28.5t-27.5 71.5zM649 1788q0 43 30 71.5t73 28.5t71.5 -28.5t28.5 -71.5t-28.5 -71.5t-71.5 -28.5t-73 28.5 t-30 71.5z" />
<glyph unicode="&#x2c6;" horiz-adv-x="1028" d="M119 1370l393 256l395 -256l-59 -94l-336 194l-334 -194z" />
<glyph unicode="&#x2dc;" horiz-adv-x="1028" d="M176 1444q84 84 197 84q57 0 150 -36t132 -36q84 0 131 62l64 -101q-12 -27 -62.5 -58.5t-123.5 -31.5q-49 0 -144.5 37t-138.5 37q-84 0 -141 -60z" />
<glyph unicode="&#x2000;" horiz-adv-x="1007" />
<glyph unicode="&#x2001;" horiz-adv-x="2015" />
<glyph unicode="&#x2002;" horiz-adv-x="1007" />
<glyph unicode="&#x2003;" horiz-adv-x="2015" />
<glyph unicode="&#x2004;" horiz-adv-x="671" />
<glyph unicode="&#x2005;" horiz-adv-x="503" />
<glyph unicode="&#x2006;" horiz-adv-x="335" />
<glyph unicode="&#x2007;" horiz-adv-x="335" />
<glyph unicode="&#x2008;" horiz-adv-x="251" />
<glyph unicode="&#x2009;" horiz-adv-x="403" />
<glyph unicode="&#x200a;" horiz-adv-x="111" />
<glyph unicode="&#x2010;" horiz-adv-x="690" d="M49 539v143h592v-143h-592z" />
<glyph unicode="&#x2011;" horiz-adv-x="690" d="M49 539v143h592v-143h-592z" />
<glyph unicode="&#x2012;" horiz-adv-x="690" d="M49 539v143h592v-143h-592z" />
<glyph unicode="&#x2013;" horiz-adv-x="841" d="M0 539v143h842v-143h-842z" />
<glyph unicode="&#x2014;" horiz-adv-x="1372" d="M0 539v143h1372v-143h-1372z" />
<glyph unicode="&#x2018;" horiz-adv-x="534" d="M86 1141q0 129 81 224t179 130l41 -76q-74 -29 -115 -76t-41 -98q0 -37 22.5 -67.5t45.5 -45t70 -40.5v-11q0 -55 -37 -92t-92 -37q-68 0 -111 50.5t-43 138.5z" />
<glyph unicode="&#x2019;" horiz-adv-x="534" d="M147 1030q74 29 116 76t42 98q0 37 -23.5 68t-45 45t-68.5 39v12q0 55 36 91t91 36q68 0 112 -49t44 -137q0 -129 -81.5 -226.5t-181.5 -130.5z" />
<glyph unicode="&#x201a;" horiz-adv-x="493" d="M86 -205q152 68 152 168q0 49 -28 81t-89 62v15q0 53 34.5 88t90.5 35q66 0 107.5 -48.5t41.5 -134.5q0 -123 -80 -219t-178 -131z" />
<glyph unicode="&#x201c;" horiz-adv-x="946" d="M86 1141q0 129 81 224t179 130l41 -76q-74 -29 -115 -76t-41 -98q0 -37 22.5 -67.5t45.5 -45t70 -40.5v-11q0 -55 -37 -92t-92 -37q-68 0 -111 50.5t-43 138.5zM498 1141q0 129 81 224t179 130l41 -76q-74 -29 -115 -76t-41 -98q0 -37 22.5 -67.5t45 -45t69.5 -40.5v-11 q0 -55 -36.5 -92t-92.5 -37q-68 0 -110.5 50.5t-42.5 138.5z" />
<glyph unicode="&#x201d;" horiz-adv-x="946" d="M147 1030q74 29 116 76t42 98q0 37 -23.5 68t-45 45t-68.5 39v12q0 55 36 91t91 36q68 0 112 -49t44 -137q0 -129 -81.5 -226.5t-181.5 -130.5zM559 1030q74 29 116 76t42 98q0 37 -23.5 68t-45 45t-68.5 39v12q0 55 35.5 91t91.5 36q68 0 111.5 -49t43.5 -137 q0 -129 -81 -226.5t-181 -130.5z" />
<glyph unicode="&#x201e;" horiz-adv-x="905" d="M84 -205q152 66 152 168q0 86 -117 143v15q0 53 35.5 88t91.5 35q63 0 105 -48.5t42 -134.5q0 -125 -79 -220t-177 -130zM496 -205q152 66 151 168q0 86 -117 143v15q0 53 36 88t91 35q63 0 105.5 -48.5t42.5 -134.5q0 -125 -79 -220t-177 -130z" />
<glyph unicode="&#x2022;" horiz-adv-x="921" d="M188 727q0 115 78 192.5t195 77.5t194.5 -77.5t77.5 -192.5t-77.5 -193.5t-192.5 -78.5q-121 0 -198 77.5t-77 194.5z" />
<glyph unicode="&#x2026;" horiz-adv-x="1599" d="M100 123q0 55 36 92t89.5 37t90 -37t36.5 -92q0 -51 -36.5 -87t-90.5 -36q-51 0 -88 36t-37 87zM672 123q0 55 36.5 92t88.5 37q55 0 92 -37t37 -92q0 -51 -37 -87t-92 -36q-51 0 -88 36t-37 87zM1247 123q0 55 36 92t87 37q55 0 92 -37t37 -92q0 -51 -37 -87t-92 -36 q-51 0 -87 36t-36 87z" />
<glyph unicode="&#x202f;" horiz-adv-x="403" />
<glyph unicode="&#x2039;" horiz-adv-x="604" d="M94 553l314 434l106 -82l-244 -352l244 -350l-106 -80z" />
<glyph unicode="&#x203a;" horiz-adv-x="604" d="M94 203l244 350l-244 352l107 82l313 -434l-313 -430z" />
<glyph unicode="&#x205f;" horiz-adv-x="503" />
<glyph unicode="&#x20ac;" horiz-adv-x="1220" d="M78 496v127h166v163h-166v129h180q43 248 178 382.5t359 134.5q248 0 360 -119l-102 -129q-111 102 -275 102q-143 0 -237.5 -93t-124.5 -278h489l-33 -129h-469q10 -41 9.5 -66.5t-5 -57t-4.5 -39.5h431l-31 -127h-385q59 -367 368 -367q150 0 263 94l90 -119 q-121 -121 -375 -120q-444 0 -510 512h-176z" />
<glyph unicode="&#x2122;" horiz-adv-x="1224" d="M10 1356v80h424v-80h-160v-482h-100v482h-164zM526 872v564h158l139 -410l138 410h157v-564h-94v291l2 174h-8l-152 -424h-88l-151 433h-9l3 -183v-291h-95z" />
<glyph unicode="&#x25fc;" horiz-adv-x="1116" d="M0 0v1116h1116v-1116h-1116z" />
<glyph unicode="&#xfb03;" horiz-adv-x="1869" d="M57 989v125h187v125q0 332 422 332q219 0 348 -74q109 74 301 74q106 0 205.5 -19.5t146.5 -44.5l-43 -127q-127 55 -326 56q-133 0 -189 -47.5t-56 -149.5v-125h647v-1114h-158v989h-491v-989h-160v989h-490v-989h-159v989h-185zM403 1114h490v125q0 84 31 152 q-119 45 -275 45q-133 0 -189.5 -47.5t-56.5 -149.5v-125z" />
<glyph unicode="&#xfb04;" horiz-adv-x="1949" d="M57 989v125h187v125q0 332 422 332q219 0 348 -74q109 74 301 74q252 0 385 -84v-1223q0 -74 27.5 -107.5t89.5 -33.5q47 0 92 22v-135q-51 -25 -140 -24q-113 0 -170 61.5t-57 173.5v1184q-96 31 -244 31q-133 0 -189 -47.5t-56 -149.5v-125h258v-125h-260v-989h-160 v989h-490v-989h-159v989h-185zM403 1114h490v125q0 84 31 152q-119 45 -275 45q-133 0 -189.5 -47.5t-56.5 -149.5v-125z" />
</font>
</defs>
</svg>
