<?xml version="1.0" standalone="no"?>
<!DOCTYPE svg PUBLIC "-//W3C//DTD SVG 1.1//EN" "http://www.w3.org/Graphics/SVG/1.1/DTD/svg11.dtd" >
<svg xmlns="http://www.w3.org/2000/svg">
<metadata></metadata>
<defs>
<font id="kohinoor_devanagaribold" horiz-adv-x="1431" >
<font-face units-per-em="2048" ascent="1638" descent="-410" />
<missing-glyph horiz-adv-x="573" />
<glyph unicode="&#xfb01;" horiz-adv-x="1320" d="M37 944v213h176v86q0 358 500 359q293 0 424 -66l-66 -225q-131 47 -373 47q-109 0 -142.5 -36t-33.5 -110v-55h660v-1157h-310v944h-356v-944h-309v944h-170z" />
<glyph unicode="&#xfb02;" horiz-adv-x="1376" d="M37 944v213h176v86q0 358 500 359q332 0 469 -76v-1161q0 -115 96 -115q23 0 43 4v-244q-74 -29 -147 -28q-141 0 -221.5 79.5t-80.5 223.5v1065q-74 8 -174 8q-109 0 -142.5 -36t-33.5 -110v-55h193v-213h-199v-944h-309v944h-170z" />
<glyph horiz-adv-x="0" />
<glyph unicode="&#xd;" horiz-adv-x="681" />
<glyph unicode=" "  horiz-adv-x="573" />
<glyph unicode="&#x09;" horiz-adv-x="573" />
<glyph unicode="&#xa0;" horiz-adv-x="573" />
<glyph unicode="!" horiz-adv-x="731" d="M209 168q0 82 53 137t131 55q82 0 136.5 -55t54.5 -137q0 -76 -55.5 -129t-135.5 -53q-76 0 -130 53t-54 129zM211 1505h371l-60 -932h-250z" />
<glyph unicode="&#x22;" horiz-adv-x="831" d="M70 1477h307l-43 -533h-221zM455 1477h307l-43 -533h-221z" />
<glyph unicode="#" horiz-adv-x="1427" d="M55 379l31 223h240l36 232h-243l31 223h243l53 379h261l-54 -379h256l54 379h260l-54 -379h203l-31 -223h-204l-31 -232h203l-31 -223h-203l-53 -379h-260l53 379h-256l-53 -379h-260l53 379h-244zM586 602h260l31 232h-254z" />
<glyph unicode="$" horiz-adv-x="1130" d="M45 184l170 230q162 -152 360 -152q84 0 129.5 35t45.5 92t-46.5 93t-177.5 96l-123 55q-301 133 -301 385q0 160 105.5 268.5t271.5 138.5l-8 263h250l-6 -263q88 -14 161.5 -51t101.5 -61.5t42 -44.5l-178 -211q-117 117 -267 117q-78 0 -119.5 -36t-41.5 -95.5 t48 -99.5t156 -89l101 -45q186 -84 263 -166t77 -221q0 -145 -95.5 -256t-273.5 -146l6 -278h-250l7 268q-240 25 -408 174z" />
<glyph unicode="%" horiz-adv-x="1789" d="M78 1061q0 188 94 290.5t262 102.5q344 0 344 -381q0 -197 -93 -298t-263 -101q-344 0 -344 387zM248 188l1188 1203l133 -129l-1190 -1203zM303 1063q0 -215 127 -215q68 0 95.5 50t27.5 165q0 217 -131 217q-119 0 -119 -217zM1012 369q0 188 94 290.5t262 102.5 q344 0 344 -381q0 -197 -93 -298t-263 -101q-344 0 -344 387zM1237 371q0 -215 127 -215q68 0 95.5 50t27.5 165q0 217 -131 217q-119 0 -119 -217z" />
<glyph unicode="&#x26;" horiz-adv-x="1482" d="M43 379q0 154 85 248t239 157q-106 123 -107 279q0 162 114.5 272.5t303.5 110.5q186 0 294.5 -104.5t108.5 -268.5q0 -139 -80.5 -239.5t-226.5 -153.5q164 -164 252 -231q72 106 72 321h266q0 -129 -40 -260t-105 -217q45 -41 325 -252v-41h-368q-12 8 -136 100 q-182 -143 -483 -143q-254 0 -384 126t-130 296zM338 403q0 -86 72.5 -145t193.5 -59q141 0 238 65q-217 190 -336 322q-168 -47 -168 -183zM532 1063q0 -53 30 -115.5t61 -85.5q96 33 142 80t46 121q0 66 -39 105.5t-104 39.5q-61 0 -98.5 -36.5t-37.5 -108.5z" />
<glyph unicode="'" horiz-adv-x="446" d="M70 1477h307l-43 -533h-221z" />
<glyph unicode="(" horiz-adv-x="759" d="M154 592q0 182 36.5 354t89 295t118 228.5t114.5 164t90 90.5h281v-28q-203 -193 -338 -476.5t-135 -627.5t135 -627.5t338 -476.5v-29h-281q-41 33 -90 91.5t-114.5 164t-118 228.5t-89 295t-36.5 354z" />
<glyph unicode=")" horiz-adv-x="759" d="M-123 -512q203 193 338 476.5t135 627.5t-135 627.5t-338 476.5v28h281q41 -33 90 -91t114.5 -163.5t117.5 -228.5t89 -295t37 -354t-37 -354t-89 -295t-117.5 -228.5t-114.5 -164t-90 -91.5h-281v29z" />
<glyph unicode="*" horiz-adv-x="854" d="M51 1055l72 217l113 -37l112 -76l-35 131v121h230v-119l-37 -131l112 76l117 37l68 -219l-111 -37l-139 -4l109 -86l71 -99l-186 -133l-70 95l-49 129l-47 -127l-72 -99l-184 135l70 97l108 84l-137 8z" />
<glyph unicode="+" horiz-adv-x="1126" d="M57 594v242h383v385h246v-385h383v-242h-383v-385h-246v385h-383z" />
<glyph unicode="," horiz-adv-x="587" d="M98 -250q113 39 172.5 105.5t59.5 134.5q0 23 -5.5 42t-20.5 36.5t-25.5 30t-36 27.5t-36.5 21.5t-43 22.5l-40 20v13q0 84 52 140t142 56q111 0 175.5 -76.5t64.5 -193.5q0 -186 -117.5 -318.5t-277.5 -185.5z" />
<glyph unicode="-" horiz-adv-x="765" d="M41 532v248h684v-248h-684z" />
<glyph unicode="." horiz-adv-x="587" d="M92 178q0 88 57.5 147.5t141.5 59.5q88 0 146.5 -59.5t58.5 -147.5q0 -82 -59.5 -139t-145.5 -57q-82 0 -140.5 57t-58.5 139z" />
<glyph unicode="/" horiz-adv-x="794" d="M-20 -326l579 1821h256l-579 -1821h-256z" />
<glyph unicode="0" horiz-adv-x="1161" d="M76 678q0 717 518 717q258 0 374.5 -172t116.5 -535q0 -708 -520 -708q-260 0 -374.5 169.5t-114.5 528.5zM377 688q0 -238 49 -346.5t158 -108.5q117 0 159.5 101.5t42.5 343.5q0 236 -51 349.5t-162 113.5q-115 0 -155.5 -103.5t-40.5 -349.5z" />
<glyph unicode="1" horiz-adv-x="933" d="M10 1094l439 280h301v-1374h-299v688l10 389h-8l-177 -147l-104 -70z" />
<glyph unicode="2" horiz-adv-x="1048" d="M74 250q358 340 477 506q98 139 98 231q0 154 -129 154q-66 0 -98.5 -52.5t-36.5 -130.5l-303 54q18 170 131 276.5t324 106.5q201 0 311 -97.5t110 -269.5q0 -221 -170 -432q-82 -98 -186 -203q-6 -6 -168 -151v-6l244 12h299v-248h-852z" />
<glyph unicode="3" horiz-adv-x="1048" d="M14 268l281 127q68 -168 213 -168q168 0 168 181q0 164 -234 163h-92v246h90q98 0 142.5 41t44.5 137q0 152 -138 152q-66 0 -102.5 -42t-38.5 -116l-289 25q6 166 120 273.5t308 107.5q436 0 437 -373q0 -115 -57.5 -192.5t-149.5 -108.5v-6q109 -10 182.5 -81 t73.5 -212q0 -213 -135.5 -327.5t-368.5 -114.5q-178 0 -295 82.5t-160 205.5z" />
<glyph unicode="4" horiz-adv-x="1107" d="M35 535l518 839h340v-827h182v-244h-182v-303h-289v303h-506zM338 547h266v184l35 332h-8l-137 -266z" />
<glyph unicode="5" horiz-adv-x="1124" d="M68 268l294 125q55 -166 193 -166q168 0 168 211q0 219 -186 219q-88 0 -150 -65l-248 88l58 694h753v-246h-489l-29 -290h8q68 51 174 51q406 0 406 -414q0 -225 -129 -360t-356 -135q-358 0 -467 288z" />
<glyph unicode="6" horiz-adv-x="1124" d="M100 510q0 264 129 495.5t324 368.5h381v-39q-293 -170 -438 -432l4 -6q41 20 123 21q193 0 306 -105.5t113 -325.5q0 -231 -134 -369t-351 -138q-457 0 -457 530zM395 518q0 -291 193 -291q82 0 119.5 53.5t37.5 172.5q0 102 -53 161.5t-153 59.5q-70 0 -133 -19 q-10 -55 -11 -137z" />
<glyph unicode="7" horiz-adv-x="940" d="M-20 1110v264h884l47 -291l-280 -475q-84 -139 -121 -263t-37 -294v-51h-301v55q0 299 160 611l104 196l150 254v8q-113 -14 -242 -14h-364z" />
<glyph unicode="8" horiz-adv-x="1150" d="M92 377q0 123 67.5 202.5t180.5 114.5v8q-92 23 -152.5 101t-60.5 192q0 190 119 295t334 105q446 0 446 -377q0 -106 -60.5 -185t-152.5 -112v-8q248 -51 248 -303q0 -213 -129.5 -321.5t-358.5 -108.5q-481 0 -481 397zM385 395q0 -176 195 -176q188 0 188 180 q0 176 -193 176q-102 0 -146 -51t-44 -129zM422 993q0 -88 36 -134t120 -46t118.5 45t34.5 135q0 72 -38 115t-115 43q-156 0 -156 -158z" />
<glyph unicode="9" horiz-adv-x="1073" d="M55 903q0 231 133.5 361.5t354.5 130.5q453 0 452 -525q0 -254 -128 -493.5t-316 -376.5h-381v39q311 178 440 444l-4 6q-35 -10 -114 -10q-197 0 -317 103.5t-120 320.5zM350 940q0 -217 201 -217q78 0 141 22q8 59 8 113q0 152 -53 220.5t-133 68.5q-82 0 -123 -47 t-41 -160z" />
<glyph unicode=":" horiz-adv-x="587" d="M92 178q0 88 57.5 147.5t141.5 59.5q88 0 146.5 -59.5t58.5 -147.5q0 -82 -59.5 -139t-145.5 -57q-82 0 -140.5 57t-58.5 139zM92 952q0 88 57.5 147.5t141.5 59.5q88 0 146.5 -59.5t58.5 -147.5q0 -82 -59.5 -139t-145.5 -57q-82 0 -140.5 57t-58.5 139z" />
<glyph unicode=";" horiz-adv-x="587" d="M59 -262q113 39 172.5 105.5t59.5 133.5q0 23 -5 42.5t-20.5 37t-26 29.5t-36 27.5t-36.5 21.5t-43 22.5t-40 20.5v12q0 84 52 140.5t143 56.5q111 0 175 -77t64 -193q0 -186 -117.5 -318.5t-277.5 -185.5zM94 952q0 88 57.5 147.5t141.5 59.5q88 0 146.5 -59.5 t58.5 -147.5q0 -82 -59.5 -139t-145.5 -57q-82 0 -140.5 57t-58.5 139z" />
<glyph unicode="&#x3c;" horiz-adv-x="1126" d="M57 600v225l1012 435v-306l-352 -133l-303 -100v-8l301 -103l354 -137v-305z" />
<glyph unicode="=" horiz-adv-x="1126" d="M57 354v244h1012v-244h-1012zM57 831v244h1012v-244h-1012z" />
<glyph unicode="&#x3e;" horiz-adv-x="1126" d="M57 168v305l353 133l303 101v8l-301 102l-355 137v306l1012 -433v-225z" />
<glyph unicode="?" horiz-adv-x="1085" d="M106 1346q158 172 474 172q199 0 309 -93.5t110 -259.5q0 -125 -46 -215t-175 -198l-284 -242q-137 47 -138 170q0 72 52.5 132t114 96t113.5 92.5t52 119.5q0 61 -38.5 98t-104.5 37q-131 0 -238 -135zM393 168q0 84 54.5 138t132.5 54q86 0 137 -52t51 -140 q0 -78 -53 -130t-137 -52q-82 0 -133.5 51t-51.5 131z" />
<glyph unicode="@" horiz-adv-x="2080" d="M123 438q0 449 285.5 736.5t746.5 287.5q367 0 585 -189.5t218 -506.5q0 -299 -148.5 -479.5t-392.5 -180.5q-186 0 -250 111h-8q-78 -106 -229 -106q-166 0 -248 93t-82 245q0 129 35 232t89 166.5t129 104.5t149.5 57.5t154.5 16.5q201 0 320 -84l-78 -469 q-8 -49 -8 -70q0 -72 63 -71q115 0 181.5 126t66.5 269q0 240 -149.5 372t-438.5 132q-330 0 -531.5 -217t-201.5 -541q0 -287 150.5 -429t433.5 -142q182 0 303 73l92 -204q-176 -98 -438 -99q-393 0 -596 203t-203 563zM866 496q0 -88 29 -124t92 -36q74 0 139 53 q0 41 11 98l51 299q-51 10 -78 11q-100 0 -172 -81t-72 -220z" />
<glyph unicode="A" horiz-adv-x="1363" d="M29 0l434 1436h436l436 -1436h-327l-90 330h-482l-92 -330h-315zM508 588h338l-55 200q-84 299 -109 431h-8q-31 -148 -107 -422z" />
<glyph unicode="B" horiz-adv-x="1314" d="M158 0v1436h514q463 0 463 -373q0 -115 -60.5 -192.5t-148.5 -110.5v-8q117 -14 197.5 -92t80.5 -220q0 -80 -23.5 -149.5t-82 -139t-177 -110.5t-288.5 -41h-475zM467 258h215q109 0 157 50t48 122q0 88 -62.5 130t-158.5 42h-199v-344zM467 860h156q106 0 158.5 46 t52.5 114q0 158 -199 158h-168v-318z" />
<glyph unicode="C" horiz-adv-x="1210" d="M94 702q0 348 164 550t471 202q297 0 449 -168l-205 -227q-31 37 -57.5 60.5t-83 47t-125.5 23.5q-291 0 -291 -467q0 -227 79.5 -351t237.5 -124q154 0 256 121l172 -222q-55 -68 -171 -117.5t-283 -49.5q-317 0 -465 192t-148 530z" />
<glyph unicode="D" horiz-adv-x="1384" d="M166 0v1436h446q348 0 513 -170t165 -516q0 -147 -32.5 -273.5t-105.5 -238t-209 -175t-327 -63.5h-450zM477 258h115q207 0 292 119t85 344q0 246 -98.5 351.5t-280.5 105.5h-113v-920z" />
<glyph unicode="E" horiz-adv-x="1153" d="M166 0v1436h850v-258h-539v-320h463v-258h-463v-342h563v-258h-874z" />
<glyph unicode="F" horiz-adv-x="1097" d="M166 0v1436h850v-258h-539v-381h463v-258h-463v-539h-311z" />
<glyph unicode="G" horiz-adv-x="1347" d="M94 705q0 371 189.5 561t492.5 190q307 0 451 -166l-201 -219q-106 115 -262 115q-348 0 -348 -445q0 -264 87 -386t267 -122q88 0 135 21v485h314v-633q-183 -126 -509 -126h-5q-610 0 -611 725z" />
<glyph unicode="H" horiz-adv-x="1480" d="M166 0v1436h313v-590h522v590h314v-1436h-314v588h-522v-588h-313z" />
<glyph unicode="I" horiz-adv-x="677" d="M182 0v1436h314v-1436h-314z" />
<glyph unicode="J" horiz-adv-x="909" d="M18 35l97 276q87 -65 191 -65h3q68 0 94.5 29.5t26.5 95.5v1065h313v-1088q0 -170 -105.5 -272.5t-320.5 -102.5q-199 1 -299 62z" />
<glyph unicode="K" horiz-adv-x="1327" d="M166 0v1436h313v-1436h-313zM487 723v8l426 705h361l-447 -699l492 -737h-391z" />
<glyph unicode="L" horiz-adv-x="1040" d="M166 0v1436h313v-1178h529v-258h-842z" />
<glyph unicode="M" horiz-adv-x="1839" d="M170 0v1436h481l273 -774h8l268 774h469v-1436h-299v1063h-8l-320 -891h-258l-315 891h-12v-1063h-287z" />
<glyph unicode="N" horiz-adv-x="1499" d="M170 0v1436h375l293 -566q135 -260 202 -440h9q-16 201 -17 551v455h297v-1436h-366l-316 606q-94 184 -190 438h-8q20 -205 20 -501v-543h-299z" />
<glyph unicode="O" horiz-adv-x="1378" d="M94 709q0 377 164 562t438 185q588 0 588 -731q0 -375 -165 -560t-441 -185q-283 0 -433.5 171t-150.5 558zM416 729q0 -262 71.5 -375.5t208.5 -113.5q129 0 197 108.5t68 362.5q0 258 -73 371.5t-210 113.5q-262 0 -262 -467z" />
<glyph unicode="P" horiz-adv-x="1226" d="M166 0v1436h491q502 0 502 -426q0 -223 -133 -361.5t-428 -138.5h-119v-510h-313zM479 766h103q145 0 199.5 53t54.5 148q0 106 -55.5 155t-174.5 49h-127v-405z" />
<glyph unicode="Q" d="M115 711q0 375 164.5 560t441.5 185q596 0 596 -733q0 -262 -78 -427t-201 -222v-8l355 -218l-297 -172l-379 314q-135 0 -239.5 34.5t-188.5 114.5t-129 224.5t-45 347.5zM436 729q0 -489 285 -489q135 0 203.5 107.5t68.5 365.5q0 260 -72.5 371.5t-213.5 111.5 q-131 0 -201 -106.5t-70 -360.5z" />
<glyph unicode="R" horiz-adv-x="1255" d="M166 0v1436h467q246 0 371.5 -101.5t125.5 -320.5q0 -176 -82.5 -274.5t-220.5 -125.5v-8q57 -27 98.5 -73t92.5 -138l219 -395h-373l-237 467q-35 68 -131 68h-21v-535h-309zM475 782h119q121 0 170 50.5t49 154.5q0 190 -215 191h-123v-396z" />
<glyph unicode="S" horiz-adv-x="1173" d="M53 158l178 258q173 -172 361 -172q90 0 137 40t47 99q0 61 -68.5 109.5t-165 88.5t-193.5 91t-165.5 143t-68.5 217q0 180 142 302t364 122q160 0 274.5 -55t161.5 -117l-195 -231q-109 133 -268 133q-74 0 -117 -37t-43 -92q0 -63 67.5 -111.5t165 -88.5t194.5 -91 t165 -143.5t68 -219.5q0 -174 -142.5 -298.5t-400.5 -124.5q-182 0 -313.5 58t-184.5 120z" />
<glyph unicode="T" horiz-adv-x="1038" d="M6 1178v258h1026v-258h-356v-1178h-314v1178h-356z" />
<glyph unicode="U" d="M160 498v938h313v-877q0 -158 60.5 -237.5t195.5 -79.5q115 0 172 66.5t57 211.5v916h314v-871q0 -307 -162 -446t-424 -139q-266 0 -396 141t-130 377z" />
<glyph unicode="V" horiz-adv-x="1359" d="M16 1436h349l221 -779q80 -285 102 -397h8q39 193 97 399l221 777h329l-460 -1436h-406z" />
<glyph unicode="W" horiz-adv-x="1970" d="M14 1436h338l142 -580q76 -313 84 -506h8q12 115 69 383l154 703h371l161 -701q53 -223 72 -381h8q16 201 80 467l144 615h311l-367 -1436h-368l-146 637q-59 258 -82 446h-8q-31 -219 -70 -381l-165 -702h-371z" />
<glyph unicode="X" horiz-adv-x="1290" d="M12 0l461 733l-436 703h377l241 -441h9l229 441h360l-434 -703l459 -733h-375l-268 465h-8l-254 -465h-361z" />
<glyph unicode="Y" horiz-adv-x="1284" d="M2 1436h348l293 -662h8l299 662h332l-483 -975v-461h-314v461z" />
<glyph unicode="Z" horiz-adv-x="1138" d="M47 246l635 917v8h-563v265h901l43 -246l-629 -918v-8h635v-264h-979z" />
<glyph unicode="[" horiz-adv-x="737" d="M207 -532v2254h565v-204h-301v-1848h301v-202h-565z" />
<glyph unicode="\" horiz-adv-x="794" d="M-20 1495h256l579 -1821h-256z" />
<glyph unicode="]" horiz-adv-x="737" d="M-35 -330h301v1848h-301v204h565v-2254h-565v202z" />
<glyph unicode="^" horiz-adv-x="1155" d="M53 567l373 869h303l373 -869h-299l-123 310l-102 305h-9l-102 -305l-123 -310h-291z" />
<glyph unicode="_" horiz-adv-x="1069" d="M0 -70h1069v-221h-1069v221z" />
<glyph unicode="`" horiz-adv-x="1040" d="M197 1550l268 158l377 -311l-160 -135z" />
<glyph unicode="a" horiz-adv-x="1120" d="M76 301q0 195 162 290q141 83 372 82q34 0 70 -1v90q0 168 -166 168q-143 0 -199 -131l-219 162q154 217 416 217q229 0 344 -89.5t115 -293.5v-463q0 -94 80 -94h32v-213q-61 -39 -153 -39q-147 0 -209 125h-8q-96 -129 -295 -129q-162 0 -252 93t-90 226zM377 330 q0 -51 32.5 -82t92.5 -31q117 0 178 82v164q-35 2 -66 2q-237 0 -237 -135z" />
<glyph unicode="b" horiz-adv-x="1212" d="M139 53v1499h305v-446h9q92 63 225 63q457 0 457 -569q0 -274 -156 -447t-436 -173h-6q-238 0 -398 73zM449 242q46 -17 116 -17q262 0 262 350q0 340 -223 340q-102 0 -155 -61v-612z" />
<glyph unicode="c" horiz-adv-x="1032" d="M78 567q0 297 145.5 455t388.5 158q274 0 400 -168l-207 -197q-63 111 -193 111q-106 0 -162.5 -77t-56.5 -257q0 -360 217 -361q133 0 197 113l197 -182q-137 -184 -422 -185q-504 0 -504 590z" />
<glyph unicode="d" horiz-adv-x="1220" d="M78 518q0 174 44 305t118.5 202t160.5 104.5t183 33.5h8q98 0 182 -24v413h307v-1552h-241l-49 94h-9q-112 -112 -279 -112h-3q-193 0 -307.5 133t-114.5 403zM391 545q0 -162 53.5 -241t147.5 -79q119 0 190 99v548q-51 41 -153 41q-53 0 -92 -14t-74 -52t-53.5 -114 t-18.5 -188z" />
<glyph unicode="e" horiz-adv-x="1169" d="M78 582q0 281 145.5 439.5t397.5 158.5q219 0 341.5 -127t122.5 -342q0 -102 -14 -207h-690q6 -283 283 -283q154 1 254 105l135 -220q-158 -129 -424 -129q-551 0 -551 605zM387 709h408v30q-1 207 -183 207q-102 0 -161.5 -66.5t-63.5 -170.5z" />
<glyph unicode="f" horiz-adv-x="800" d="M37 944v213h176v82q0 156 105.5 259.5t308.5 103.5q106 -1 188 -21l-43 -250q-78 20 -133 21q-63 0 -90 -30t-27 -91v-74h252v-213h-258v-944h-309v944h-170z" />
<glyph unicode="g" horiz-adv-x="1210" d="M76 -262l174 227q43 -61 122 -98t169 -37q121 0 174 51t53 172v60h-8q-72 -66 -228 -66q-203 0 -328.5 123t-125.5 412q0 258 145.5 423.5t417.5 166.5h4q269 0 426 -70v-1051q0 -229 -145.5 -350t-384.5 -121q-332 0 -465 158zM385 594q0 -168 54.5 -232.5t164.5 -64.5 q102 0 162 59v551q-61 20 -127 21q-123 0 -188.5 -85t-65.5 -249z" />
<glyph unicode="h" horiz-adv-x="1251" d="M139 0v1552h310v-512h8q121 125 305 125q172 0 263 -96t91 -289v-780h-309v719q0 184 -160 184q-55 0 -112.5 -37t-85.5 -90v-776h-310z" />
<glyph unicode="i" horiz-adv-x="604" d="M121 1458q0 80 51 132t125 52q78 0 130 -52t52 -132q0 -74 -52 -124t-130 -50q-74 0 -125 51t-51 123zM147 0v1157h310v-1157h-310z" />
<glyph unicode="j" horiz-adv-x="591" d="M-61 -205q117 51 160.5 127t43.5 248v987h310v-997q0 -76 -8.5 -141.5t-35 -140.5t-70.5 -133t-121 -110.5t-181 -83.5zM119 1458q0 80 51 132t125 52q78 0 130 -52t52 -132q0 -74 -52 -124t-130 -50q-74 0 -125 51t-51 123z" />
<glyph unicode="k" horiz-adv-x="1171" d="M139 0v1552h310v-1552h-310zM457 612v9l315 536h354l-340 -532v-9l349 -616h-367z" />
<glyph unicode="l" horiz-adv-x="643" d="M139 285v1267h310v-1187q0 -115 96 -115q23 0 43 4v-244q-72 -28 -143 -28h-5q-141 0 -221 79.5t-80 223.5z" />
<glyph unicode="m" horiz-adv-x="1886" d="M139 0v1157h254l51 -108h9q104 135 305 135q211 0 289 -156h8q117 156 340 156q356 0 356 -385v-799h-309v743q0 180 -150 181q-59 0 -112.5 -36t-79.5 -97v-791h-309v721q0 203 -164 203q-55 0 -105.5 -40t-72.5 -98v-786h-310z" />
<glyph unicode="n" horiz-adv-x="1251" d="M139 0v1157h242l61 -108h9q51 63 136 100t175 37q172 0 263 -96t91 -289v-801h-309v735q0 90 -41 139.5t-119 49.5q-141 0 -198 -138v-786h-310z" />
<glyph unicode="o" horiz-adv-x="1212" d="M78 573q0 283 129 444t403 161q285 0 405 -154t120 -442q0 -283 -130.5 -444t-404.5 -161q-283 0 -402.5 154t-119.5 442zM395 586q0 -184 50.5 -275.5t165 -91.5t160.5 84t46 266q0 184 -51 275.5t-168 91.5q-104 0 -153.5 -86t-49.5 -264z" />
<glyph unicode="p" horiz-adv-x="1222" d="M139 -397v1554h228l65 -98h8q100 119 277 119q195 0 311.5 -143.5t116.5 -407.5q0 -305 -148.5 -469t-371.5 -164q-96 0 -179 18v-409h-307zM442 279q59 -35 146 -35q119 0 180 81t61 275q0 164 -60 246t-157 82q-111 0 -170 -88v-561z" />
<glyph unicode="q" horiz-adv-x="1208" d="M78 555q0 270 145.5 441t425.5 171h7q265 0 413 -71v-1493h-297v440h-8q-80 -63 -242 -63q-201 0 -322.5 137t-121.5 438zM385 567q0 -193 57.5 -263.5t166 -70.5t161.5 58v612q-61 21 -143 21q-242 0 -242 -357z" />
<glyph unicode="r" horiz-adv-x="858" d="M139 0v1157h242l63 -170h9q82 195 299 195q53 -1 98 -11v-305q-51 10 -133 11q-158 0 -271 -93v-784h-307z" />
<glyph unicode="s" horiz-adv-x="1015" d="M18 154l185 213q47 -55 128 -99.5t175 -44.5q133 1 133 99q0 45 -56.5 77.5t-136 60t-159.5 64.5t-136.5 113t-56.5 182q0 147 118 253t312 106q279 0 418 -162l-199 -195q-94 109 -227 109q-51 0 -83 -24.5t-32 -65.5q0 -47 56.5 -81t136.5 -60.5t160 -63.5t136 -113 t56 -182q0 -137 -113.5 -248.5t-343.5 -111.5q-170 0 -288.5 53t-182.5 121z" />
<glyph unicode="t" horiz-adv-x="823" d="M16 922v192l150 62l106 272h197v-291h289v-235h-289v-560q0 -120 119 -120h2q92 0 158 51l79 -232q-98 -71 -321 -71q-342 0 -342 381v551h-148z" />
<glyph unicode="u" horiz-adv-x="1259" d="M135 381v776h309v-747q0 -94 43 -143.5t123 -49.5q139 0 201 139v801h309v-1157h-262l-43 106h-8q-106 -129 -305 -129q-186 0 -276.5 99.5t-90.5 304.5z" />
<glyph unicode="v" horiz-adv-x="1124" d="M10 1157h334l158 -553q53 -184 76 -313h8q16 119 69 313l150 553h309l-364 -1157h-347z" />
<glyph unicode="w" horiz-adv-x="1697" d="M16 1157h310l123 -534q43 -195 59 -361h8q16 172 64 359l143 536h295l125 -528q57 -242 63 -367h8q16 150 70 371l123 524h274l-299 -1157h-360l-154 774h-8l-188 -774h-355z" />
<glyph unicode="x" horiz-adv-x="1087" d="M8 0l365 598l-344 559h344l184 -340h8l135 340h363l-336 -563l352 -594h-344l-192 365h-8l-168 -365h-359z" />
<glyph unicode="y" horiz-adv-x="1116" d="M10 1157h346l129 -393q78 -240 103 -404h8q33 213 86 404l109 393h319l-389 -1214q-57 -176 -160.5 -277.5t-290.5 -101.5q-118 0 -188 35l51 254q53 -29 125 -29q170 0 186 180z" />
<glyph unicode="z" horiz-adv-x="1036" d="M78 231l495 670v8h-467v248h793l41 -233l-487 -668v-8h514v-248h-848z" />
<glyph unicode="{" horiz-adv-x="741" d="M123 487v238q98 0 139 40t41 93q0 117 -30.5 285t-30.5 258q0 322 336 321q100 0 159 -24l-26 -201q-49 12 -90 12q-113 0 -113 -114q0 -96 27.5 -251t27.5 -249q0 -236 -201 -285v-8q201 -49 201 -285q0 -94 -27.5 -261t-27.5 -263q0 -115 113 -115q41 0 90 13l26 -201 q-59 -25 -141 -25q-172 0 -263 84t-91 238q0 90 30.5 270.5t30.5 296.5q0 53 -41 93t-139 40z" />
<glyph unicode="|" horiz-adv-x="561" d="M176 -573v2338h209v-2338h-209z" />
<glyph unicode="}" horiz-adv-x="741" d="M4 -510l27 201q49 -12 90 -13q113 0 112 115q0 96 -27.5 263t-27.5 261q0 236 201 285v8q-201 49 -201 285q0 94 27.5 248.5t27.5 251.5q0 115 -112 114q-41 0 -90 -12l-27 201q59 25 160 24q336 0 336 -321q0 -90 -31 -258t-31 -285q0 -53 41 -93t139 -40v-238 q-98 0 -139 -39.5t-41 -93.5q0 -117 31 -297t31 -270q0 -154 -91.5 -238t-263.5 -84q-82 0 -141 25z" />
<glyph unicode="~" horiz-adv-x="1150" d="M43 451q0 145 73.5 242.5t219.5 97.5q94 0 247.5 -71t209.5 -71q76 0 75 113q0 16 -4 53l244 -43q0 -31 -4 -88q-37 -285 -285 -285q-98 0 -251.5 71t-207.5 71q-76 0 -75 -111q0 -18 4 -55l-244 43q0 4 -1 16t-1 17z" />
<glyph unicode="&#xa1;" horiz-adv-x="653" d="M135 -342l62 932h258l63 -932h-383zM139 995q0 76 55.5 129.5t135.5 53.5q76 0 130 -53.5t54 -129.5q0 -82 -53 -137t-131 -55q-82 0 -136.5 55t-54.5 137z" />
<glyph unicode="&#xa2;" horiz-adv-x="1017" d="M70 567q0 297 146 455t386 158q92 0 160 -19l100 275h148l-119 -328q63 -41 106 -107l-217 -196l-207 -572q10 -2 33 -2q119 0 193 123l192 -192q-25 -39 -62.5 -75t-135 -73t-222.5 -37q-47 0 -88 7l-94 -263h-147l106 295q-279 113 -278 551zM377 592q0 -195 67 -289h9 l223 619q-37 12 -80 12q-219 0 -219 -342z" />
<glyph unicode="&#xa3;" horiz-adv-x="1163" d="M92 219q68 27 106 79t44 163l8 149h-148v240h164l15 172q18 211 149 324.5t324 113.5q154 0 239.5 -45t147.5 -129l-195 -199q-80 115 -209 115q-74 0 -109.5 -43t-43.5 -133l-15 -176h363v-240h-377l-8 -121q-10 -153 -94 -221v-8h643v-260h-955z" />
<glyph unicode="&#xa4;" horiz-adv-x="1142" d="M43 322l121 116q-60 107 -60 230q0 121 58 225l-119 117l174 168l119 -117q104 57 235 57q127 0 234 -55l119 115l174 -168l-119 -117q59 -109 59 -225q0 -121 -61 -230l121 -116l-174 -168l-121 114q-102 -53 -232 -53q-131 0 -235 55l-119 -116zM354 668 q0 -90 61.5 -154.5t156 -64.5t155.5 64.5t61 154.5t-61 154.5t-155.5 64.5t-156 -64.5t-61.5 -154.5z" />
<glyph unicode="&#xa5;" horiz-adv-x="1249" d="M10 1436h348l164 -404l103 -325h8l104 325l170 404h332l-348 -758h262v-240h-373v-438h-313v438h-381v240h268z" />
<glyph unicode="&#xa6;" horiz-adv-x="577" d="M184 332h209v-729h-209v729zM184 840v729h209v-729h-209z" />
<glyph unicode="&#xa7;" horiz-adv-x="1146" d="M158 918q0 240 177 419t460 179q84 0 159 -17l-51 -188q-68 29 -155 28q-98 0 -157 -45t-59 -120q0 -68 55.5 -140.5t134.5 -143.5t157.5 -149.5t134 -187.5t55.5 -229q0 -233 -166 -403.5t-444 -170.5q-99 1 -183 19l43 192q78 -33 164 -33q119 0 167 50.5t48 111.5 q0 72 -55 140.5t-135 132t-160 136t-135 181t-55 238.5zM330 928q0 -90 50 -174t124 -149.5t148.5 -129t132 -141.5t67.5 -158q2 -12 2 -35h10q39 82 39 185q0 92 -50 175t-122 147.5t-145.5 127t-131 143t-65.5 166.5q-2 12 -2 35h-10q-47 -72 -47 -192z" />
<glyph unicode="&#xa8;" horiz-adv-x="1040" d="M100 1468.5q0 67.5 47.5 114.5t117 47t116.5 -47t47 -114.5t-47 -114.5t-116.5 -47t-117 47t-47.5 114.5zM612 1468.5q0 67.5 47.5 114.5t117 47t116.5 -47t47 -114.5t-47 -114.5t-116.5 -47t-117 47t-47.5 114.5z" />
<glyph unicode="&#xa9;" horiz-adv-x="1695" d="M72 710.5q0 325.5 223 541.5t553 216q334 0 553 -214t219 -543q0 -322 -222 -538t-550 -216q-334 0 -555 214t-221 539.5zM287 711q0 -240 156.5 -393.5t404.5 -153.5q242 0 399.5 155.5t157.5 391.5q0 244 -152.5 396.5t-404.5 152.5t-406.5 -153.5t-154.5 -395.5z M500 712.5q0 194.5 94 309.5t270 115q111 0 177.5 -33t91.5 -72l-121 -145q-27 41 -57.5 59.5t-90.5 18.5q-76 0 -111.5 -60.5t-35.5 -191.5q0 -252 147 -252q98 0 150 78l116 -144q-94 -111 -266 -110q-186 0 -275 116.5t-89 311z" />
<glyph unicode="&#xab;" horiz-adv-x="1226" d="M45 580l414 528l192 -154l-291 -374l291 -373l-192 -154zM575 580l414 528l193 -154l-291 -374l291 -373l-193 -154z" />
<glyph unicode="&#xac;" horiz-adv-x="1142" d="M45 698v217h1051v-575h-226v358h-825z" />
<glyph unicode="&#xad;" horiz-adv-x="765" d="M41 532v248h684v-248h-684z" />
<glyph unicode="&#xae;" horiz-adv-x="991" d="M49 1007.5q0 204.5 129 323.5t318 119q190 0 318 -119t128 -323q0 -203 -126.5 -322t-321.5 -119q-188 0 -316.5 118t-128.5 322.5zM166 1008q0 -162 93.5 -249t234.5 -87q143 0 237 87t94 249q0 164 -96 251t-233 87q-139 0 -234.5 -87.5t-95.5 -250.5zM342 780v477h162 q78 0 125 -35.5t47 -107.5q0 -119 -90 -137l123 -197h-129l-95 172h-34v-172h-109zM451 1040h38q43 0 59.5 15.5t16.5 52.5q0 61 -67 61h-47v-129z" />
<glyph unicode="&#xaf;" horiz-adv-x="1040" d="M197 1309v243h647v-243h-647z" />
<glyph unicode="&#xb0;" horiz-adv-x="839" d="M86 1128.5q0 145.5 96.5 236.5t241.5 91q147 0 238.5 -87t91.5 -232.5t-95.5 -236.5t-242.5 -91q-145 0 -237.5 87t-92.5 232.5zM260 1136.5q0 -73.5 46 -123.5t118 -50q74 0 114 46t40 119.5t-44.5 122.5t-117.5 49q-72 0 -114 -45t-42 -118.5z" />
<glyph unicode="&#xb1;" horiz-adv-x="1126" d="M57 0v242h383v352h-383v242h383v385h246v-385h383v-242h-383v-352h383v-242h-1012z" />
<glyph unicode="&#xb2;" horiz-adv-x="788" d="M57 934q10 10 68.5 58t103.5 89t101.5 99.5t87.5 103.5q41 66 41 105q0 90 -78 90q-41 0 -63.5 -33t-24.5 -82l-225 37q12 111 93 177.5t234 66.5q145 0 218 -63.5t73 -176.5q0 -115 -96 -236q-54 -67 -148 -149l-108 -88l153 8h213v-164h-606z" />
<glyph unicode="&#xb3;" horiz-adv-x="772" d="M45 950l207 90q39 -113 139 -112q57 0 80 26.5t23 77.5q0 100 -164 101h-60v155h68q76 0 101.5 25.5t25.5 79.5q0 92 -96 92q-76 0 -80 -99l-219 17q4 106 85 175t220 69q305 -1 305 -226q0 -147 -127 -192q160 -23 160 -182q0 -133 -95.5 -207t-259.5 -74 q-123 0 -202.5 52t-110.5 132z" />
<glyph unicode="&#xb4;" horiz-adv-x="1040" d="M197 1397l376 311l269 -158l-486 -288z" />
<glyph unicode="&#xb5;" horiz-adv-x="1290" d="M139 -397v1554h310v-747q0 -92 44 -142.5t121 -50.5q115 0 158 59.5t43 178.5v702h309v-823q0 -103 84 -103q25 0 49 9v-217q-66 -39 -151.5 -39t-147 43t-75.5 133h-9q-74 -174 -296 -174q-68 0 -132 26v-409h-307z" />
<glyph unicode="&#xb6;" horiz-adv-x="1292" d="M76 999q0 209 136 323t361 114h138v-1385q0 -307 -238 -483l-158 158q98 86 133 154.5t35 215.5v527q-37 -4 -57 -5q-350 0 -350 381zM895 0v1436h221v-1436h-221z" />
<glyph unicode="&#xb7;" horiz-adv-x="587" d="M92 711q0 88 57.5 147.5t141.5 59.5q88 0 146.5 -59.5t58.5 -147.5q0 -82 -59.5 -139.5t-145.5 -57.5q-82 0 -140.5 57.5t-58.5 139.5z" />
<glyph unicode="&#xb8;" horiz-adv-x="1040" d="M342 -387q143 55 143 156q0 72 -53 118v9h232q34 -52 34 -138q0 -223 -272 -293z" />
<glyph unicode="&#xb9;" horiz-adv-x="665" d="M16 1462l316 174h229v-860h-229v432q0 37 2 112t4 112h-8l-123 -93l-82 -51z" />
<glyph unicode="&#xbb;" horiz-adv-x="1226" d="M45 207l291 373l-291 374l193 154l413 -528l-413 -527zM575 207l291 373l-291 374l193 154l414 -528l-414 -527z" />
<glyph unicode="&#xbf;" horiz-adv-x="927" d="M47 -4q0 125 46 215t175 199l285 241q137 -47 137 -170q0 -72 -52 -132t-113.5 -96t-114 -92.5t-52.5 -119.5q0 -61 39 -98t105 -37q131 0 237 135l201 -225q-158 -172 -473 -172q-199 0 -309.5 93t-110.5 259zM279 993q0 78 53 130.5t137 52.5q82 0 133 -51.5t51 -131.5 q0 -84 -54 -138t-132 -54q-86 0 -137 52t-51 140z" />
<glyph unicode="&#xc0;" horiz-adv-x="1363" d="M29 0l434 1436h436l436 -1436h-327l-90 330h-482l-92 -330h-315zM190 1829l269 158l377 -312l-160 -135zM508 588h338l-55 200q-84 299 -109 431h-8q-31 -148 -107 -422z" />
<glyph unicode="&#xc1;" horiz-adv-x="1363" d="M29 0l434 1436h436l436 -1436h-327l-90 330h-482l-92 -330h-315zM508 588h338l-55 200q-84 299 -109 431h-8q-31 -148 -107 -422zM535 1675l376 312l269 -158l-486 -289z" />
<glyph unicode="&#xc2;" horiz-adv-x="1363" d="M29 0l434 1436h436l436 -1436h-327l-90 330h-482l-92 -330h-315zM260 1722l418 256l424 -256l-115 -184l-309 174l-316 -172zM508 588h338l-55 200q-84 299 -109 431h-8q-31 -148 -107 -422z" />
<glyph unicode="&#xc3;" horiz-adv-x="1363" d="M29 0l434 1436h436l436 -1436h-327l-90 330h-482l-92 -330h-315zM264 1753q31 51 93.5 96t142.5 45q68 0 174 -42t149 -42q53 0 84 19.5t70 71.5l121 -177q-31 -51 -93.5 -96t-142.5 -45q-59 0 -171.5 42t-149.5 42q-92 0 -156 -90zM508 588h338l-55 200 q-84 299 -109 431h-8q-31 -148 -107 -422z" />
<glyph unicode="&#xc4;" horiz-adv-x="1363" d="M29 0l434 1436h436l436 -1436h-327l-90 330h-482l-92 -330h-315zM262 1747q0 68 47 115t117 47t117 -47t47 -115t-47 -115t-117 -47t-117 47t-47 115zM508 588h338l-55 200q-84 299 -109 431h-8q-31 -148 -107 -422zM774 1747q0 68 47 115t117 47t117 -47t47 -115 t-47 -115t-117 -47t-117 47t-47 115z" />
<glyph unicode="&#xc5;" horiz-adv-x="1363" d="M29 0l434 1436h436l436 -1436h-327l-90 330h-482l-92 -330h-315zM412 1733q0 113 74.5 187.5t195.5 74.5q123 0 195.5 -70t72.5 -180.5t-75.5 -186t-196.5 -75.5q-123 0 -194.5 69.5t-71.5 180.5zM508 588h338l-55 200q-84 299 -109 431h-8q-31 -148 -107 -422zM571 1741 q0 -49 28 -80t81 -31q111 1 111 107q0 111 -111 110q-109 0 -109 -106z" />
<glyph unicode="&#xc6;" horiz-adv-x="1894" d="M-12 0l717 1436h1052v-258h-551v-320h475v-258h-475v-342h576v-258h-875v371h-411l-183 -371h-325zM623 625h284v561h-8z" />
<glyph unicode="&#xc7;" horiz-adv-x="1210" d="M94 702q0 348 164 550t471 202q297 0 449 -168l-205 -227q-31 37 -57.5 60.5t-83 47t-125.5 23.5q-291 0 -291 -467q0 -227 79.5 -351t237.5 -124q154 0 256 121l172 -222q-55 -68 -171 -117.5t-283 -49.5q-317 0 -465 192t-148 530zM426 -387q143 55 143 156 q0 72 -53 118v9h232q34 -52 34 -138q0 -223 -272 -293z" />
<glyph unicode="&#xc8;" horiz-adv-x="1153" d="M123 1829l268 158l377 -312l-160 -135zM166 0v1436h850v-258h-539v-320h463v-258h-463v-342h563v-258h-874z" />
<glyph unicode="&#xc9;" horiz-adv-x="1153" d="M166 0v1436h850v-258h-539v-320h463v-258h-463v-342h563v-258h-874zM422 1675l377 312l268 -158l-485 -289z" />
<glyph unicode="&#xca;" horiz-adv-x="1153" d="M166 0v1436h850v-258h-539v-320h463v-258h-463v-342h563v-258h-874zM174 1722l418 256l424 -256l-115 -184l-309 174l-316 -172z" />
<glyph unicode="&#xcb;" horiz-adv-x="1153" d="M166 0v1436h850v-258h-539v-320h463v-258h-463v-342h563v-258h-874zM176 1747q0 68 47 115t117 47t117 -47t47 -115t-47 -115t-117 -47t-117 47t-47 115zM688 1747q0 68 47 115t117 47t117 -47t47 -115t-47 -115t-117 -47t-117 47t-47 115z" />
<glyph unicode="&#xcc;" horiz-adv-x="677" d="M-123 1829l268 158l377 -312l-160 -135zM182 0v1436h314v-1436h-314z" />
<glyph unicode="&#xcd;" horiz-adv-x="677" d="M143 1675l377 312l268 -158l-485 -289zM182 0v1436h314v-1436h-314z" />
<glyph unicode="&#xce;" horiz-adv-x="677" d="M-82 1722l418 256l424 -256l-115 -184l-309 174l-316 -172zM182 0v1436h314v-1436h-314z" />
<glyph unicode="&#xcf;" horiz-adv-x="677" d="M-80 1747q0 68 47 115t117 47t117 -47t47 -115t-47 -115t-117 -47t-117 47t-47 115zM182 0v1436h314v-1436h-314zM432 1747q0 68 47 115t117 47t117 -47t47 -115t-47 -115t-117 -47t-117 47t-47 115z" />
<glyph unicode="&#xd0;" horiz-adv-x="1400" d="M25 649v207h157v580h447q348 0 513 -170t165 -516q0 -147 -33 -273.5t-105.5 -238t-209 -175t-326.5 -63.5h-451v649h-157zM494 258h114q207 0 292 119t85 344q0 246 -98.5 351.5t-280.5 105.5h-112v-322h245v-207h-245v-391z" />
<glyph unicode="&#xd1;" horiz-adv-x="1499" d="M170 0v1436h375l293 -566q135 -260 202 -440h9q-16 201 -17 551v455h297v-1436h-366l-316 606q-94 184 -190 438h-8q20 -205 20 -501v-543h-299zM332 1753q31 51 93 96t142 45q68 0 174.5 -42t149.5 -42q53 0 84 19.5t69 71.5l121 -177q-31 -51 -93 -96t-142 -45 q-59 0 -172 42t-150 42q-92 0 -155 -90z" />
<glyph unicode="&#xd2;" d="M121 709q0 377 164 562t438 185q588 0 588 -731q0 -375 -165 -560t-441 -185q-283 0 -433.5 171t-150.5 558zM262 1829l268 158l377 -312l-159 -135zM442 729q0 -262 72 -375.5t209 -113.5q129 0 196.5 108.5t67.5 362.5q0 258 -72.5 371.5t-209.5 113.5 q-263 0 -263 -467z" />
<glyph unicode="&#xd3;" d="M121 709q0 377 164 562t438 185q588 0 588 -731q0 -375 -165 -560t-441 -185q-283 0 -433.5 171t-150.5 558zM442 729q0 -262 72 -375.5t209 -113.5q129 0 196.5 108.5t67.5 362.5q0 258 -72.5 371.5t-209.5 113.5q-263 0 -263 -467zM539 1675l376 312l269 -158 l-486 -289z" />
<glyph unicode="&#xd4;" d="M121 709q0 377 164 562t438 185q588 0 588 -731q0 -375 -165 -560t-441 -185q-283 0 -433.5 171t-150.5 558zM295 1722l418 256l424 -256l-115 -184l-309 174l-316 -172zM442 729q0 -262 72 -375.5t209 -113.5q129 0 196.5 108.5t67.5 362.5q0 258 -72.5 371.5 t-209.5 113.5q-263 0 -263 -467z" />
<glyph unicode="&#xd5;" d="M121 709q0 377 164 562t438 185q588 0 588 -731q0 -375 -165 -560t-441 -185q-283 0 -433.5 171t-150.5 558zM299 1753q31 51 93.5 96t142.5 45q68 0 174 -42t149 -42q53 0 84 19.5t70 71.5l121 -177q-31 -51 -93.5 -96t-142.5 -45q-59 0 -172 42t-150 42q-92 0 -155 -90 zM442 729q0 -262 72 -375.5t209 -113.5q129 0 196.5 108.5t67.5 362.5q0 258 -72.5 371.5t-209.5 113.5q-263 0 -263 -467z" />
<glyph unicode="&#xd6;" d="M121 709q0 377 164 562t438 185q588 0 588 -731q0 -375 -165 -560t-441 -185q-283 0 -433.5 171t-150.5 558zM295 1747q0 68 47 115t116.5 47t117 -47t47.5 -115t-47.5 -115t-117 -47t-116.5 47t-47 115zM442 729q0 -262 72 -375.5t209 -113.5q129 0 196.5 108.5 t67.5 362.5q0 258 -72.5 371.5t-209.5 113.5q-263 0 -263 -467zM807 1747q0 68 47 115t116.5 47t117 -47t47.5 -115t-47.5 -115t-117 -47t-116.5 47t-47 115z" />
<glyph unicode="&#xd7;" horiz-adv-x="1126" d="M106 426l297 289l-297 289l168 167l289 -297l289 297l168 -167l-297 -289l297 -289l-168 -168l-289 297l-289 -297z" />
<glyph unicode="&#xd8;" d="M94 -12l131 198q-131 182 -131 523q0 375 173 561t456 186q174 0 303 -63l43 63h268v-8l-135 -203q135 -184 135 -520q0 -375 -174 -560t-458 -185q-176 0 -304 59l-39 -59h-268v8zM416 729q0 -127 22 -223l426 643q-66 47 -159 47q-289 0 -289 -467zM565 287 q68 -47 158 -47q291 0 291 471q0 121 -23 217z" />
<glyph unicode="&#xd9;" d="M160 498v938h313v-877q0 -158 60.5 -237.5t195.5 -79.5q115 0 172 66.5t57 211.5v916h314v-871q0 -307 -162 -446t-424 -139q-266 0 -396 141t-130 377zM225 1829l269 158l376 -312l-159 -135z" />
<glyph unicode="&#xda;" d="M160 498v938h313v-877q0 -158 60.5 -237.5t195.5 -79.5q115 0 172 66.5t57 211.5v916h314v-871q0 -307 -162 -446t-424 -139q-266 0 -396 141t-130 377zM557 1675l377 312l268 -158l-485 -289z" />
<glyph unicode="&#xdb;" d="M160 498v938h313v-877q0 -158 60.5 -237.5t195.5 -79.5q115 0 172 66.5t57 211.5v916h314v-871q0 -307 -162 -446t-424 -139q-266 0 -396 141t-130 377zM295 1722l418 256l424 -256l-115 -184l-309 174l-316 -172z" />
<glyph unicode="&#xdc;" d="M160 498v938h313v-877q0 -158 60.5 -237.5t195.5 -79.5q115 0 172 66.5t57 211.5v916h314v-871q0 -307 -162 -446t-424 -139q-266 0 -396 141t-130 377zM295 1747q0 68 47 115t116.5 47t117 -47t47.5 -115t-47.5 -115t-117 -47t-116.5 47t-47 115zM807 1747q0 68 47 115 t116.5 47t117 -47t47.5 -115t-47.5 -115t-117 -47t-116.5 47t-47 115z" />
<glyph unicode="&#xdd;" horiz-adv-x="1284" d="M2 1436h348l293 -662h8l299 662h332l-483 -975v-461h-314v461zM481 1675l377 312l268 -158l-485 -289z" />
<glyph unicode="&#xde;" horiz-adv-x="1208" d="M166 0v1436h313v-238h180q500 0 500 -426q0 -104 -29.5 -190t-92 -158t-175 -112t-266.5 -40h-117v-272h-313zM479 528h88q156 0 212.5 55.5t56.5 143.5q0 106 -55.5 156.5t-176.5 50.5h-125v-406z" />
<glyph unicode="&#xdf;" horiz-adv-x="1320" d="M141 0v1075q0 248 126 378t362 130q219 0 337.5 -100.5t118.5 -253.5q0 -80 -28.5 -151.5t-62 -113.5t-62.5 -85t-29 -70q0 -25 40 -52.5t97.5 -60t114.5 -74.5t97 -115t40 -165q0 -158 -111.5 -262.5t-332.5 -104.5q-180 0 -320 78l123 240q104 -72 217 -72 q133 0 133 111q0 57 -64.5 106t-140 82t-140 96.5t-64.5 145.5q0 80 98 210t98 212q0 152 -159 151q-98 0 -143.5 -59t-45.5 -193v-1083h-299z" />
<glyph unicode="&#xe0;" horiz-adv-x="1138" d="M49 1550l268 158l377 -311l-159 -135zM80 301q0 195 161.5 290t442.5 81v90q0 168 -166 168q-143 0 -199 -131l-219 162q154 217 416 217q229 0 344 -89.5t115 -293.5v-463q0 -94 80 -94h32v-213q-61 -39 -153 -39q-147 0 -209 125h-8q-96 -129 -295 -129q-162 0 -252 93 t-90 226zM381 330q0 -51 32.5 -82t92.5 -31q117 0 178 82v164q-303 20 -303 -133z" />
<glyph unicode="&#xe1;" horiz-adv-x="1138" d="M80 301q0 195 161.5 290t442.5 81v90q0 168 -166 168q-143 0 -199 -131l-219 162q154 217 416 217q229 0 344 -89.5t115 -293.5v-463q0 -94 80 -94h32v-213q-61 -39 -153 -39q-147 0 -209 125h-8q-96 -129 -295 -129q-162 0 -252 93t-90 226zM381 330q0 -51 32.5 -82 t92.5 -31q117 0 178 82v164q-303 20 -303 -133zM381 1397l377 311l268 -158l-485 -288z" />
<glyph unicode="&#xe2;" horiz-adv-x="1138" d="M80 301q0 195 161.5 290t442.5 81v90q0 168 -166 168q-143 0 -199 -131l-219 162q154 217 416 217q229 0 344 -89.5t115 -293.5v-463q0 -94 80 -94h32v-213q-61 -39 -153 -39q-147 0 -209 125h-8q-96 -129 -295 -129q-162 0 -252 93t-90 226zM147 1444l418 256l424 -256 l-115 -184l-309 174l-315 -172zM381 330q0 -51 32.5 -82t92.5 -31q117 0 178 82v164q-303 20 -303 -133z" />
<glyph unicode="&#xe3;" horiz-adv-x="1138" d="M80 301q0 195 161.5 290t442.5 81v90q0 168 -166 168q-143 0 -199 -131l-219 162q154 217 416 217q229 0 344 -89.5t115 -293.5v-463q0 -94 80 -94h32v-213q-61 -39 -153 -39q-147 0 -209 125h-8q-96 -129 -295 -129q-162 0 -252 93t-90 226zM152 1475q31 51 93 96 t142 45q68 0 174.5 -42t149.5 -42q53 0 83.5 19.5t69.5 70.5l121 -176q-31 -51 -93.5 -96t-141.5 -45q-59 0 -172 42t-150 42q-92 0 -156 -91zM381 330q0 -51 32.5 -82t92.5 -31q117 0 178 82v164q-303 20 -303 -133z" />
<glyph unicode="&#xe4;" horiz-adv-x="1138" d="M80 301q0 195 161.5 290t442.5 81v90q0 168 -166 168q-143 0 -199 -131l-219 162q154 217 416 217q229 0 344 -89.5t115 -293.5v-463q0 -94 80 -94h32v-213q-61 -39 -153 -39q-147 0 -209 125h-8q-96 -129 -295 -129q-162 0 -252 93t-90 226zM150 1468.5q0 67.5 47 114.5 t116.5 47t116.5 -47t47 -114.5t-47 -114.5t-116.5 -47t-116.5 47t-47 114.5zM381 330q0 -51 32.5 -82t92.5 -31q117 0 178 82v164q-303 20 -303 -133zM662 1468.5q0 67.5 47 114.5t116.5 47t116.5 -47t47 -114.5t-47 -114.5t-116.5 -47t-116.5 47t-47 114.5z" />
<glyph unicode="&#xe5;" horiz-adv-x="1138" d="M80 301q0 195 161.5 290t442.5 81v90q0 168 -166 168q-143 0 -199 -131l-219 162q154 217 416 217q229 0 344 -89.5t115 -293.5v-463q0 -94 80 -94h32v-213q-61 -39 -153 -39q-147 0 -209 125h-8q-96 -129 -295 -129q-162 0 -252 93t-90 226zM299 1454q0 113 75 187.5 t195 74.5q123 0 196 -69.5t73 -180t-75 -186.5t-198 -76t-194.5 69.5t-71.5 180.5zM381 330q0 -51 32.5 -82t92.5 -31q117 0 178 82v164q-303 20 -303 -133zM459 1462q0 -49 27.5 -79.5t80.5 -30.5q111 0 111 106q0 111 -111 111q-109 0 -108 -107z" />
<glyph unicode="&#xe6;" horiz-adv-x="1775" d="M29 297q0 389 667 389v59q0 86 -45 135.5t-131 49.5q-156 0 -254 -129l-180 213q129 164 438 164q266 0 363 -144h8q117 145 324 146q229 0 354 -128t125 -354q0 -135 -27 -204h-686q14 -141 84 -207t203 -66q158 0 270 117l156 -203q-154 -158 -455 -158 q-292 0 -403 170h-9q-51 -86 -138 -131t-267 -45q-199 0 -298 92.5t-99 233.5zM340 328q0 -45 37.5 -84t109.5 -39q209 0 209 207v71q-193 0 -274.5 -33.5t-81.5 -121.5zM989 707h406v32q0 207 -193 207q-88 0 -144.5 -61.5t-68.5 -177.5z" />
<glyph unicode="&#xe7;" horiz-adv-x="1032" d="M78 567q0 297 145.5 455t388.5 158q274 0 400 -168l-207 -197q-63 111 -193 111q-106 0 -162.5 -77t-56.5 -257q0 -360 217 -361q133 0 197 113l197 -182q-137 -184 -422 -185q-504 0 -504 590zM420 -387q143 55 143 156q0 72 -53 118v9h231q35 -52 35 -138 q0 -223 -272 -293z" />
<glyph unicode="&#xe8;" horiz-adv-x="1169" d="M78 582q0 281 145.5 439.5t397.5 158.5q219 0 341.5 -127t122.5 -342q0 -102 -14 -207h-690q6 -283 283 -283q154 1 254 105l135 -220q-158 -129 -424 -129q-551 0 -551 605zM131 1550l268 158l377 -311l-160 -135zM387 709h408v30q-1 207 -183 207q-102 0 -161.5 -66.5 t-63.5 -170.5z" />
<glyph unicode="&#xe9;" horiz-adv-x="1169" d="M78 582q0 281 145.5 439.5t397.5 158.5q219 0 341.5 -127t122.5 -342q0 -102 -14 -207h-690q6 -283 283 -283q154 1 254 105l135 -220q-158 -129 -424 -129q-551 0 -551 605zM387 709h408v30q-1 207 -183 207q-102 0 -161.5 -66.5t-63.5 -170.5zM444 1397l377 311 l269 -158l-486 -288z" />
<glyph unicode="&#xea;" horiz-adv-x="1169" d="M78 582q0 281 145.5 439.5t397.5 158.5q219 0 341.5 -127t122.5 -342q0 -102 -14 -207h-690q6 -283 283 -283q154 1 254 105l135 -220q-158 -129 -424 -129q-551 0 -551 605zM164 1444l418 256l424 -256l-115 -184l-309 174l-316 -172zM387 709h408v30q-1 207 -183 207 q-102 0 -161.5 -66.5t-63.5 -170.5z" />
<glyph unicode="&#xeb;" horiz-adv-x="1169" d="M78 582q0 281 145.5 439.5t397.5 158.5q219 0 341.5 -127t122.5 -342q0 -102 -14 -207h-690q6 -283 283 -283q154 1 254 105l135 -220q-158 -129 -424 -129q-551 0 -551 605zM164 1468.5q0 67.5 47 114.5t116.5 47t117 -47t47.5 -114.5t-47.5 -114.5t-117 -47t-116.5 47 t-47 114.5zM387 709h408v30q-1 207 -183 207q-102 0 -161.5 -66.5t-63.5 -170.5zM676 1468.5q0 67.5 47 114.5t116.5 47t117 -47t47.5 -114.5t-47.5 -114.5t-117 -47t-116.5 47t-47 114.5z" />
<glyph unicode="&#xec;" horiz-adv-x="604" d="M-162 1550l268 158l377 -311l-159 -135zM147 0v1157h310v-1157h-310z" />
<glyph unicode="&#xed;" horiz-adv-x="604" d="M111 1397l376 311l269 -158l-486 -288zM147 0v1157h310v-1157h-310z" />
<glyph unicode="&#xee;" horiz-adv-x="604" d="M-119 1444l418 256l424 -256l-115 -184l-309 174l-315 -172zM147 0v1157h310v-1157h-310z" />
<glyph unicode="&#xef;" horiz-adv-x="604" d="M-117 1468.5q0 67.5 47 114.5t117 47t117 -47t47 -114.5t-47 -114.5t-117 -47t-117 47t-47 114.5zM147 0v1157h310v-1157h-310zM395 1468.5q0 67.5 47 114.5t117 47t117 -47t47 -114.5t-47 -114.5t-117 -47t-117 47t-47 114.5z" />
<glyph unicode="&#xf0;" horiz-adv-x="1140" d="M86 440q0 240 130 363t308 123q55 0 109.5 -10.5t66.5 -10.5h2q-31 94 -110 195l-359 -144v172l230 93q-102 78 -338 194v21h434q84 -43 160 -113l311 125v-172l-196 -80q210 -272 210 -598q0 -301 -133 -458.5t-362 -157.5q-213 0 -338 119.5t-125 338.5zM379 463 q0 -115 54 -174.5t134 -59.5q106 0 154.5 70.5t48.5 232.5q0 88 -8 132q-80 31 -180 30q-102 0 -152.5 -53t-50.5 -178z" />
<glyph unicode="&#xf1;" horiz-adv-x="1251" d="M139 0v1157h242l61 -108h9q51 63 136 100t175 37q172 0 263 -96t91 -289v-801h-309v735q0 90 -41 139.5t-119 49.5q-141 0 -198 -138v-786h-310zM209 1475q31 51 93 96t142 45q68 0 174.5 -42t149.5 -42q53 0 84 19.5t70 70.5l120 -176q-31 -51 -93 -96t-142 -45 q-59 0 -172 42t-150 42q-92 0 -155 -91z" />
<glyph unicode="&#xf2;" horiz-adv-x="1212" d="M78 573q0 283 129 444t403 161q285 0 405 -154t120 -442q0 -283 -130.5 -444t-404.5 -161q-283 0 -402.5 154t-119.5 442zM127 1550l268 158l377 -311l-160 -135zM395 586q0 -184 50.5 -275.5t165 -91.5t160.5 84t46 266q0 184 -51 275.5t-168 91.5q-104 0 -153.5 -86 t-49.5 -264z" />
<glyph unicode="&#xf3;" horiz-adv-x="1212" d="M78 573q0 283 129 444t403 161q285 0 405 -154t120 -442q0 -283 -130.5 -444t-404.5 -161q-283 0 -402.5 154t-119.5 442zM395 586q0 -184 50.5 -275.5t165 -91.5t160.5 84t46 266q0 184 -51 275.5t-168 91.5q-104 0 -153.5 -86t-49.5 -264zM442 1397l377 311l268 -158 l-485 -288z" />
<glyph unicode="&#xf4;" horiz-adv-x="1212" d="M78 573q0 283 129 444t403 161q285 0 405 -154t120 -442q0 -283 -130.5 -444t-404.5 -161q-283 0 -402.5 154t-119.5 442zM184 1444l418 256l424 -256l-115 -184l-309 174l-315 -172zM395 586q0 -184 50.5 -275.5t165 -91.5t160.5 84t46 266q0 184 -51 275.5t-168 91.5 q-104 0 -153.5 -86t-49.5 -264z" />
<glyph unicode="&#xf5;" horiz-adv-x="1212" d="M78 573q0 283 129 444t403 161q285 0 405 -154t120 -442q0 -283 -130.5 -444t-404.5 -161q-283 0 -402.5 154t-119.5 442zM188 1475q31 51 93.5 96t142.5 45q68 0 174.5 -42t149.5 -42q53 0 83.5 19.5t69.5 70.5l121 -176q-31 -51 -93.5 -96t-142.5 -45q-59 0 -171.5 42 t-149.5 42q-92 0 -156 -91zM395 586q0 -184 50.5 -275.5t165 -91.5t160.5 84t46 266q0 184 -51 275.5t-168 91.5q-104 0 -153.5 -86t-49.5 -264z" />
<glyph unicode="&#xf6;" horiz-adv-x="1212" d="M78 573q0 283 129 444t403 161q285 0 405 -154t120 -442q0 -283 -130.5 -444t-404.5 -161q-283 0 -402.5 154t-119.5 442zM186 1468.5q0 67.5 47.5 114.5t117 47t116.5 -47t47 -114.5t-47 -114.5t-116.5 -47t-117 47t-47.5 114.5zM395 586q0 -184 50.5 -275.5t165 -91.5 t160.5 84t46 266q0 184 -51 275.5t-168 91.5q-104 0 -153.5 -86t-49.5 -264zM698 1468.5q0 67.5 47.5 114.5t117 47t116.5 -47t47 -114.5t-47 -114.5t-116.5 -47t-117 47t-47.5 114.5z" />
<glyph unicode="&#xf7;" horiz-adv-x="1126" d="M57 594v242h1012v-242h-1012zM393 327.5q0 69.5 48 118t120 48.5t120 -48.5t48 -118t-48 -117.5t-120 -48t-120 48t-48 117.5zM393 1099.5q0 69.5 48 118t120 48.5t120 -48.5t48 -118t-48 -117.5t-120 -48t-120 48t-48 117.5z" />
<glyph unicode="&#xf8;" horiz-adv-x="1212" d="M77.5 573q0.5 283 129.5 444t403 161q141 0 246 -41l29 41h250v-9l-109 -161q109 -143 109 -426t-130.5 -444t-404.5 -161q-141 0 -246 41l-26 -41h-250v9l108 159q-109 145 -108.5 428zM387 586q0 -57 8 -131l307 454q-41 27 -104 27q-211 0 -211 -350zM508 244 q41 -25 102 -25q117 0 166 85t49 265q0 55 -8 129z" />
<glyph unicode="&#xf9;" horiz-adv-x="1259" d="M129 1550l268 158l377 -311l-160 -135zM135 381v776h309v-747q0 -94 43 -143.5t123 -49.5q139 0 201 139v801h309v-1157h-262l-43 106h-8q-106 -129 -305 -129q-186 0 -276.5 99.5t-90.5 304.5z" />
<glyph unicode="&#xfa;" horiz-adv-x="1259" d="M135 381v776h309v-747q0 -94 43 -143.5t123 -49.5q139 0 201 139v801h309v-1157h-262l-43 106h-8q-106 -129 -305 -129q-186 0 -276.5 99.5t-90.5 304.5zM473 1397l377 311l268 -158l-485 -288z" />
<glyph unicode="&#xfb;" horiz-adv-x="1259" d="M135 381v776h309v-747q0 -94 43 -143.5t123 -49.5q139 0 201 139v801h309v-1157h-262l-43 106h-8q-106 -129 -305 -129q-186 0 -276.5 99.5t-90.5 304.5zM209 1444l418 256l424 -256l-115 -184l-309 174l-316 -172z" />
<glyph unicode="&#xfc;" horiz-adv-x="1259" d="M135 381v776h309v-747q0 -94 43 -143.5t123 -49.5q139 0 201 139v801h309v-1157h-262l-43 106h-8q-106 -129 -305 -129q-186 0 -276.5 99.5t-90.5 304.5zM209 1468.5q0 67.5 47 114.5t116.5 47t117 -47t47.5 -114.5t-47.5 -114.5t-117 -47t-116.5 47t-47 114.5z M721 1468.5q0 67.5 47 114.5t116.5 47t117 -47t47.5 -114.5t-47.5 -114.5t-117 -47t-116.5 47t-47 114.5z" />
<glyph unicode="&#xfd;" horiz-adv-x="1116" d="M10 1157h346l129 -393q78 -240 103 -404h8q33 213 86 404l109 393h319l-389 -1214q-57 -176 -160.5 -277.5t-290.5 -101.5q-118 0 -188 35l51 254q53 -29 125 -29q170 0 186 180zM418 1397l377 311l268 -158l-485 -288z" />
<glyph unicode="&#xfe;" horiz-adv-x="1222" d="M139 -397v1949h301v-493h9q33 47 103.5 83t164.5 36q195 0 311.5 -143.5t116.5 -407.5q0 -305 -148.5 -469t-371.5 -164q-96 0 -179 18v-409h-307zM442 279q59 -35 146 -35q119 0 180 81t61 275q0 164 -60 246t-157 82q-111 0 -170 -88v-561z" />
<glyph unicode="&#xff;" horiz-adv-x="1116" d="M10 1157h346l129 -393q78 -240 103 -404h8q33 213 86 404l109 393h319l-389 -1214q-57 -176 -160.5 -277.5t-290.5 -101.5q-118 0 -188 35l51 254q53 -29 125 -29q170 0 186 180zM137 1468.5q0 67.5 47 114.5t117 47t117 -47t47 -114.5t-47 -114.5t-117 -47t-117 47 t-47 114.5zM649 1468.5q0 67.5 47 114.5t117 47t117 -47t47 -114.5t-47 -114.5t-117 -47t-117 47t-47 114.5z" />
<glyph unicode="&#x152;" horiz-adv-x="2027" d="M94 709q0 375 174 561t457 186q254 0 348 -123h2v103h815v-258h-551v-320h476v-258h-476v-342h576v-258h-840v123h-2q-37 -59 -132 -101t-236 -42q-610 0 -611 729zM416 729q0 -256 85 -372.5t226 -116.5q137 0 212 109.5t75 361.5q0 485 -305 485q-293 0 -293 -467z" />
<glyph unicode="&#x153;" horiz-adv-x="1908" d="M78 573q0 604 528 605q244 0 357 -152h10q127 154 377 154q229 0 355 -128t126 -354q0 -135 -27 -204h-680q0 -121 77 -197t204 -76q158 0 270 117l156 -203q-154 -158 -457 -158q-274 0 -401 166h-8q-121 -166 -365 -166q-283 0 -402.5 154t-119.5 442zM395 586 q0 -367 219 -367q117 0 160 82t43 268q0 184 -53 275.5t-170 91.5q-106 0 -152.5 -85t-46.5 -265zM1126 707h402v32q0 207 -193 207q-92 0 -150.5 -72.5t-58.5 -166.5z" />
<glyph unicode="&#x178;" horiz-adv-x="1284" d="M2 1436h348l293 -662h8l299 662h332l-483 -975v-461h-314v461zM221 1747q0 68 47 115t117 47t117 -47t47 -115t-47 -115t-117 -47t-117 47t-47 115zM733 1747q0 68 47 115t117 47t117 -47t47 -115t-47 -115t-117 -47t-117 47t-47 115z" />
<glyph unicode="&#x2c6;" horiz-adv-x="1040" d="M98 1444l418 256l424 -256l-115 -184l-309 174l-315 -172z" />
<glyph unicode="&#x2dc;" horiz-adv-x="1040" d="M102 1475q31 51 93.5 96t142.5 45q68 0 174 -42t150 -42q53 0 83.5 19.5t69.5 70.5l121 -176q-31 -51 -93.5 -96t-142.5 -45q-59 0 -171.5 42t-149.5 42q-92 0 -156 -91z" />
<glyph unicode="&#x2000;" horiz-adv-x="997" />
<glyph unicode="&#x2001;" horiz-adv-x="1995" />
<glyph unicode="&#x2002;" horiz-adv-x="997" />
<glyph unicode="&#x2003;" horiz-adv-x="1995" />
<glyph unicode="&#x2004;" horiz-adv-x="665" />
<glyph unicode="&#x2005;" horiz-adv-x="498" />
<glyph unicode="&#x2006;" horiz-adv-x="332" />
<glyph unicode="&#x2007;" horiz-adv-x="332" />
<glyph unicode="&#x2008;" horiz-adv-x="249" />
<glyph unicode="&#x2009;" horiz-adv-x="399" />
<glyph unicode="&#x200a;" horiz-adv-x="110" />
<glyph unicode="&#x2010;" horiz-adv-x="765" d="M41 532v248h684v-248h-684z" />
<glyph unicode="&#x2011;" horiz-adv-x="765" d="M41 532v248h684v-248h-684z" />
<glyph unicode="&#x2012;" horiz-adv-x="765" d="M41 532v248h684v-248h-684z" />
<glyph unicode="&#x2013;" horiz-adv-x="976" d="M0 532v248h977v-248h-977z" />
<glyph unicode="&#x2014;" horiz-adv-x="1564" d="M0 532v248h1565v-248h-1565z" />
<glyph unicode="&#x2018;" horiz-adv-x="569" d="M61 1049q0 186 118 318t278 185l63 -125q-113 -39 -172 -105.5t-59 -133.5q0 -23 5 -42.5t20.5 -36.5t25.5 -29.5t35.5 -28t37 -21.5t43 -22.5t40.5 -20.5v-12q0 -84 -52.5 -140.5t-142.5 -56.5q-111 0 -175.5 77t-64.5 194z" />
<glyph unicode="&#x2019;" horiz-adv-x="569" d="M49 903q113 39 172.5 105.5t59.5 134.5q0 23 -5.5 42t-20.5 36.5t-25.5 30t-36 27.5t-37 21.5t-43 22.5t-39.5 20v13q0 84 52 140t142 56q111 0 175.5 -76.5t64.5 -193.5q0 -186 -117.5 -318.5t-277.5 -185.5z" />
<glyph unicode="&#x201a;" horiz-adv-x="604" d="M43 -231q215 94 215 231q0 111 -141 158v28q0 74 51 125t131 51q98 0 156.5 -68.5t58.5 -174.5q0 -164 -111.5 -301.5t-263.5 -186.5z" />
<glyph unicode="&#x201c;" horiz-adv-x="1103" d="M61 1049q0 186 118 318t278 185l63 -125q-113 -39 -172 -105.5t-59 -133.5q0 -23 5 -42.5t20.5 -36.5t25.5 -29.5t35.5 -28t37 -21.5t43 -22.5t40.5 -20.5v-12q0 -84 -52.5 -140.5t-142.5 -56.5q-111 0 -175.5 77t-64.5 194zM596 1049q0 186 117.5 318t277.5 185l64 -125 q-113 -39 -172.5 -105.5t-59.5 -133.5q0 -23 5.5 -42.5t20.5 -36.5t25.5 -29.5t36 -28t36.5 -21.5t43 -22.5t40 -20.5v-12q0 -84 -52 -140.5t-142 -56.5q-111 0 -175.5 77t-64.5 194z" />
<glyph unicode="&#x201d;" horiz-adv-x="1103" d="M49 903q113 39 172.5 105.5t59.5 134.5q0 23 -5.5 42t-20.5 36.5t-25.5 30t-36 27.5t-37 21.5t-43 22.5t-39.5 20v13q0 84 52 140t142 56q111 0 175.5 -76.5t64.5 -193.5q0 -186 -117.5 -318.5t-277.5 -185.5zM584 903q113 39 172 105.5t59 134.5q0 23 -5 42t-20.5 36.5 t-25.5 30t-36 27.5t-37 21.5t-43 22.5l-40 20v13q0 84 52.5 140t142.5 56q111 0 175 -76.5t64 -193.5q0 -186 -117.5 -318.5t-277.5 -185.5z" />
<glyph unicode="&#x201e;" horiz-adv-x="1138" d="M39 -231q215 94 215 231q0 111 -141 158v28q0 74 51 125t131 51q98 0 156.5 -68.5t58.5 -174.5q0 -164 -111.5 -301.5t-263.5 -186.5zM575 -231q215 94 216 231q0 111 -142 158v28q0 74 51.5 125t130.5 51q98 0 157 -68.5t59 -174.5q0 -164 -111.5 -301.5t-263.5 -186.5z " />
<glyph unicode="&#x2022;" horiz-adv-x="948" d="M201 717q0 113 77.5 190.5t194.5 77.5q125 0 200 -77t75 -191q0 -113 -78 -190.5t-195 -77.5q-125 0 -199.5 76.5t-74.5 191.5z" />
<glyph unicode="&#x2026;" horiz-adv-x="1816" d="M92 178q0 88 57.5 147.5t141.5 59.5q88 0 146.5 -59.5t58.5 -147.5q0 -82 -59.5 -139t-145.5 -57q-82 0 -140.5 57t-58.5 139zM707 178q0 88 57 147.5t141 59.5q88 0 146.5 -59.5t58.5 -147.5q0 -82 -59.5 -139t-145.5 -57q-82 0 -140 57t-58 139zM1321 178 q0 88 57.5 147.5t141.5 59.5q88 0 146 -59.5t58 -147.5q0 -82 -59 -139t-145 -57q-82 0 -140.5 57t-58.5 139z" />
<glyph unicode="&#x202f;" horiz-adv-x="399" />
<glyph unicode="&#x2039;" horiz-adv-x="716" d="M66 580l413 528l193 -154l-291 -374l291 -373l-193 -154z" />
<glyph unicode="&#x203a;" horiz-adv-x="716" d="M66 207l290 373l-290 374l192 154l414 -528l-414 -527z" />
<glyph unicode="&#x205f;" horiz-adv-x="498" />
<glyph unicode="&#x20ac;" horiz-adv-x="1245" d="M66 446v216h131v102h-131v215h157q117 475 584 475q98 0 177 -17.5t132 -51t74.5 -51t50.5 -48.5l-205 -231q-37 45 -58.5 66.5t-75.5 46t-122 24.5q-217 0 -272 -213h440l-63 -215h-396q0 -88 3 -102h366l-53 -216h-283q57 -205 289 -204q61 0 114.5 25.5t75 47 t54.5 60.5l168 -228q-139 -168 -441 -167q-250 0 -384 119.5t-181 346.5h-151z" />
<glyph unicode="&#x2122;" horiz-adv-x="1337" d="M10 1298v138h504v-138h-160v-436h-168v436h-176zM600 862v574h213l121 -353l113 353h213v-574h-156v189l12 204h-8l-115 -331h-125l-114 333h-9l11 -182v-213h-156z" />
<glyph unicode="&#x25fc;" horiz-adv-x="1157" d="M0 0v1157h1157v-1157h-1157z" />
<glyph unicode="&#xfb03;" horiz-adv-x="1986" d="M37 944v213h176v86q0 358 498 359q78 0 177 -18.5t156 -45.5q123 63 334 64q293 0 424 -66l-65 -225q-131 47 -373 47q-109 0 -142.5 -36t-33.5 -110v-55h659v-1157h-309v944h-356v-944h-310v944h-356v-944h-309v944h-170zM522 1157h357v86q0 51 8 90q-92 25 -189 25 q-109 0 -142.5 -36t-33.5 -110v-55z" />
<glyph unicode="&#xfb04;" horiz-adv-x="2041" d="M37 944v213h176v86q0 358 498 359q78 0 177 -18.5t156 -45.5q123 63 334 64q332 0 469 -76v-1161q0 -115 97 -115q23 0 43 4v-244q-74 -29 -148 -28q-141 0 -221 79.5t-80 223.5v1065q-74 8 -174 8q-109 0 -142.5 -36t-33.5 -110v-55h192v-213h-198v-944h-310v944h-356 v-944h-309v944h-170zM522 1157h357v86q0 51 8 90q-92 25 -189 25q-109 0 -142.5 -36t-33.5 -110v-55z" />
</font>
</defs>
</svg>
